<?xml version="1.0" encoding="UTF-8"?>
<svg xmlns="http://www.w3.org/2000/svg" xmlns:xlink="http://www.w3.org/1999/xlink" width="64px" height="64px" viewBox="0 0 64 64" version="1.1">
<g id="surface1">
<path style=" stroke:none;fill-rule:nonzero;fill:rgb(25.098041%,80.392158%,35.686275%);fill-opacity:1;" d="M 25.292969 19.296875 C 25.414062 19.292969 25.535156 19.292969 25.660156 19.292969 C 25.792969 19.292969 25.925781 19.292969 26.0625 19.292969 C 26.203125 19.292969 26.347656 19.292969 26.492188 19.292969 C 26.96875 19.292969 27.445312 19.292969 27.921875 19.292969 C 28.261719 19.292969 28.601562 19.292969 28.945312 19.289062 C 29.773438 19.289062 30.605469 19.289062 31.4375 19.289062 C 32.113281 19.289062 32.789062 19.289062 33.464844 19.289062 C 33.558594 19.289062 33.65625 19.289062 33.753906 19.289062 C 33.949219 19.289062 34.144531 19.289062 34.339844 19.289062 C 36.171875 19.285156 38 19.285156 39.832031 19.289062 C 41.507812 19.289062 43.183594 19.285156 44.855469 19.285156 C 46.578125 19.28125 48.296875 19.28125 50.015625 19.28125 C 50.980469 19.28125 51.945312 19.28125 52.910156 19.28125 C 53.734375 19.277344 54.554688 19.277344 55.378906 19.28125 C 55.796875 19.28125 56.21875 19.28125 56.636719 19.277344 C 57.089844 19.277344 57.546875 19.277344 58 19.28125 C 58.132812 19.277344 58.265625 19.277344 58.402344 19.277344 C 59.585938 19.285156 59.585938 19.285156 60.03125 19.710938 C 60.378906 20.335938 60.464844 20.847656 60.464844 21.554688 C 60.464844 21.644531 60.464844 21.738281 60.464844 21.832031 C 60.46875 22.132812 60.46875 22.4375 60.464844 22.738281 C 60.464844 22.957031 60.46875 23.175781 60.46875 23.394531 C 60.46875 23.984375 60.46875 24.574219 60.46875 25.167969 C 60.464844 25.785156 60.46875 26.40625 60.46875 27.023438 C 60.46875 28.0625 60.46875 29.101562 60.464844 30.140625 C 60.464844 31.34375 60.464844 32.542969 60.464844 33.746094 C 60.46875 34.777344 60.46875 35.808594 60.46875 36.839844 C 60.46875 37.457031 60.46875 38.070312 60.46875 38.6875 C 60.46875 39.265625 60.46875 39.847656 60.464844 40.425781 C 60.464844 40.636719 60.464844 40.851562 60.46875 41.0625 C 60.46875 41.351562 60.464844 41.640625 60.464844 41.933594 C 60.464844 42.09375 60.464844 42.257812 60.464844 42.425781 C 60.410156 42.953125 60.261719 43.300781 60.03125 43.777344 C 59.949219 43.777344 59.863281 43.777344 59.777344 43.777344 C 59.777344 43.859375 59.777344 43.945312 59.777344 44.03125 C 59.410156 44.152344 59.183594 44.175781 58.804688 44.175781 C 58.6875 44.175781 58.566406 44.175781 58.441406 44.175781 C 58.308594 44.175781 58.175781 44.175781 58.039062 44.175781 C 57.894531 44.175781 57.753906 44.175781 57.609375 44.175781 C 57.132812 44.175781 56.660156 44.175781 56.183594 44.175781 C 55.84375 44.175781 55.503906 44.175781 55.164062 44.175781 C 54.335938 44.179688 53.507812 44.175781 52.679688 44.175781 C 52.007812 44.175781 51.332031 44.175781 50.660156 44.175781 C 50.5625 44.175781 50.46875 44.175781 50.371094 44.175781 C 50.175781 44.175781 49.980469 44.175781 49.785156 44.175781 C 47.960938 44.175781 46.136719 44.175781 44.3125 44.175781 C 42.746094 44.175781 41.179688 44.175781 39.613281 44.175781 C 37.796875 44.175781 35.980469 44.175781 34.164062 44.175781 C 33.96875 44.175781 33.773438 44.175781 33.582031 44.175781 C 33.484375 44.175781 33.390625 44.175781 33.292969 44.175781 C 32.621094 44.175781 31.945312 44.175781 31.273438 44.175781 C 30.457031 44.179688 29.636719 44.175781 28.816406 44.175781 C 28.398438 44.175781 27.980469 44.175781 27.5625 44.175781 C 27.109375 44.175781 26.65625 44.175781 26.203125 44.175781 C 26.003906 44.175781 26.003906 44.175781 25.800781 44.175781 C 25.679688 44.175781 25.558594 44.175781 25.433594 44.175781 C 25.277344 44.175781 25.277344 44.175781 25.117188 44.175781 C 24.835938 44.160156 24.589844 44.109375 24.320312 44.03125 C 24.320312 43.949219 24.320312 43.863281 24.320312 43.777344 C 24.234375 43.777344 24.152344 43.777344 24.0625 43.777344 C 23.757812 43.316406 23.769531 42.992188 23.773438 42.464844 C 23.773438 42.371094 23.773438 42.273438 23.773438 42.175781 C 23.769531 41.855469 23.769531 41.539062 23.769531 41.21875 C 23.769531 40.988281 23.769531 40.761719 23.769531 40.53125 C 23.765625 39.910156 23.765625 39.289062 23.765625 38.664062 C 23.765625 38.148438 23.765625 37.628906 23.761719 37.109375 C 23.761719 35.886719 23.761719 34.660156 23.761719 33.4375 C 23.761719 32.175781 23.757812 30.910156 23.753906 29.648438 C 23.75 28.5625 23.75 27.480469 23.75 26.394531 C 23.75 25.75 23.75 25.101562 23.746094 24.453125 C 23.742188 23.84375 23.742188 23.234375 23.746094 22.625 C 23.746094 22.402344 23.746094 22.179688 23.742188 21.953125 C 23.742188 21.648438 23.742188 21.34375 23.746094 21.039062 C 23.742188 20.949219 23.742188 20.863281 23.742188 20.769531 C 23.746094 20.347656 23.777344 20.132812 24.042969 19.796875 C 24.488281 19.453125 24.734375 19.296875 25.292969 19.296875 Z M 29.054688 22.015625 C 29.203125 22.453125 29.34375 22.578125 29.6875 22.871094 C 29.777344 22.953125 29.871094 23.03125 29.964844 23.113281 C 30.191406 23.320312 30.191406 23.320312 30.464844 23.296875 C 30.464844 23.378906 30.464844 23.464844 30.464844 23.550781 C 30.855469 23.9375 30.855469 23.9375 31.359375 24.0625 C 31.359375 24.148438 31.359375 24.234375 31.359375 24.320312 C 31.578125 24.519531 31.800781 24.710938 32.03125 24.894531 C 32.21875 25.046875 32.21875 25.046875 32.410156 25.203125 C 32.699219 25.417969 32.953125 25.585938 33.28125 25.726562 C 33.28125 25.8125 33.28125 25.898438 33.28125 25.984375 C 33.671875 26.371094 33.671875 26.371094 34.175781 26.496094 C 34.175781 26.582031 34.175781 26.664062 34.175781 26.753906 C 34.367188 26.929688 34.570312 27.09375 34.777344 27.257812 C 35.203125 27.597656 35.625 27.9375 36.039062 28.292969 C 36.113281 28.355469 36.1875 28.421875 36.265625 28.488281 C 36.414062 28.613281 36.558594 28.742188 36.707031 28.871094 C 37.054688 29.207031 37.054688 29.207031 37.503906 29.3125 C 37.503906 29.394531 37.503906 29.480469 37.503906 29.566406 C 37.589844 29.566406 37.671875 29.566406 37.761719 29.566406 C 37.761719 29.652344 37.761719 29.738281 37.761719 29.824219 C 38.035156 30.082031 38.035156 30.082031 38.375 30.34375 C 38.492188 30.433594 38.605469 30.527344 38.722656 30.621094 C 39.03125 30.867188 39.03125 30.867188 39.425781 30.976562 C 39.425781 31.058594 39.425781 31.144531 39.425781 31.230469 C 39.664062 31.453125 39.664062 31.453125 39.976562 31.6875 C 40.484375 32.085938 40.988281 32.484375 41.488281 32.894531 C 41.605469 32.992188 41.726562 33.089844 41.847656 33.191406 C 41.980469 33.300781 41.980469 33.300781 42.113281 33.40625 C 42.453125 33.152344 42.796875 32.898438 43.136719 32.640625 C 43.242188 32.558594 43.351562 32.480469 43.460938 32.398438 C 43.566406 32.320312 43.667969 32.242188 43.777344 32.160156 C 43.875 32.085938 43.972656 32.011719 44.070312 31.9375 C 44.144531 31.875 44.214844 31.808594 44.289062 31.742188 C 44.289062 31.660156 44.289062 31.574219 44.289062 31.488281 C 44.363281 31.453125 44.4375 31.421875 44.515625 31.386719 C 44.8125 31.226562 45.03125 31.050781 45.28125 30.824219 C 45.371094 30.746094 45.457031 30.664062 45.550781 30.582031 C 45.640625 30.5 45.730469 30.417969 45.824219 30.335938 C 46.457031 29.769531 47.101562 29.238281 47.785156 28.734375 C 47.855469 28.671875 47.925781 28.609375 48 28.542969 C 48 28.460938 48 28.375 48 28.289062 C 48.070312 28.257812 48.140625 28.226562 48.214844 28.195312 C 48.585938 27.992188 48.859375 27.734375 49.167969 27.449219 C 49.765625 26.890625 49.765625 26.890625 50.046875 26.753906 C 50.046875 26.667969 50.046875 26.582031 50.046875 26.496094 C 50.132812 26.496094 50.21875 26.496094 50.304688 26.496094 C 50.304688 26.410156 50.304688 26.328125 50.304688 26.238281 C 50.40625 26.195312 50.40625 26.195312 50.515625 26.148438 C 50.898438 25.941406 51.214844 25.683594 51.550781 25.40625 C 51.679688 25.304688 51.804688 25.203125 51.933594 25.101562 C 52.078125 24.96875 52.078125 24.96875 52.222656 24.832031 C 52.222656 24.746094 52.222656 24.664062 52.222656 24.574219 C 52.296875 24.542969 52.367188 24.511719 52.441406 24.480469 C 52.789062 24.289062 53.078125 24.074219 53.375 23.808594 C 53.375 23.722656 53.375 23.640625 53.375 23.550781 C 53.449219 23.519531 53.519531 23.488281 53.59375 23.457031 C 53.9375 23.269531 54.203125 23.042969 54.496094 22.785156 C 54.597656 22.695312 54.699219 22.605469 54.804688 22.511719 C 55.070312 22.296875 55.070312 22.296875 55.039062 22.015625 C 46.464844 22.015625 37.890625 22.015625 29.054688 22.015625 Z M 26.496094 23.679688 C 26.492188 25.980469 26.492188 28.28125 26.488281 30.582031 C 26.488281 31.652344 26.488281 32.71875 26.488281 33.789062 C 26.484375 34.71875 26.484375 35.648438 26.484375 36.578125 C 26.484375 37.074219 26.484375 37.566406 26.484375 38.058594 C 26.480469 38.523438 26.480469 38.988281 26.480469 39.449219 C 26.480469 39.703125 26.480469 39.953125 26.480469 40.207031 C 26.480469 40.355469 26.480469 40.503906 26.480469 40.65625 C 26.480469 40.789062 26.480469 40.917969 26.480469 41.050781 C 26.464844 41.339844 26.464844 41.339844 26.625 41.472656 C 27.023438 41.484375 27.417969 41.488281 27.816406 41.488281 C 28.003906 41.488281 28.003906 41.488281 28.199219 41.488281 C 28.625 41.488281 29.054688 41.488281 29.480469 41.488281 C 29.789062 41.488281 30.09375 41.488281 30.398438 41.488281 C 31.140625 41.488281 31.886719 41.484375 32.632812 41.484375 C 33.5 41.484375 34.367188 41.484375 35.230469 41.484375 C 36.777344 41.484375 38.324219 41.484375 39.867188 41.480469 C 41.371094 41.480469 42.871094 41.480469 44.371094 41.480469 C 44.464844 41.480469 44.558594 41.480469 44.65625 41.480469 C 45.46875 41.480469 46.28125 41.476562 47.09375 41.476562 C 50.597656 41.476562 54.097656 41.472656 57.601562 41.472656 C 57.601562 35.601562 57.601562 29.730469 57.601562 23.679688 C 57.199219 23.878906 56.9375 24.039062 56.609375 24.320312 C 56.488281 24.417969 56.488281 24.417969 56.371094 24.519531 C 56.164062 24.691406 56.164062 24.691406 56.191406 24.960938 C 56.078125 25.011719 56.078125 25.011719 55.960938 25.0625 C 55.675781 25.21875 55.507812 25.371094 55.289062 25.609375 C 54.59375 26.324219 53.808594 26.9375 53.011719 27.539062 C 52.921875 27.617188 52.832031 27.695312 52.734375 27.777344 C 52.734375 27.859375 52.734375 27.945312 52.734375 28.03125 C 52.667969 28.0625 52.597656 28.089844 52.527344 28.121094 C 52.125 28.34375 51.789062 28.636719 51.441406 28.9375 C 50.71875 29.550781 50.71875 29.550781 50.433594 29.695312 C 50.433594 29.78125 50.433594 29.863281 50.433594 29.953125 C 50.347656 29.953125 50.261719 29.953125 50.175781 29.953125 C 50.175781 30.035156 50.175781 30.121094 50.175781 30.207031 C 50.105469 30.238281 50.035156 30.269531 49.960938 30.304688 C 49.609375 30.492188 49.320312 30.710938 49.023438 30.976562 C 49.023438 31.058594 49.023438 31.144531 49.023438 31.230469 C 48.953125 31.265625 48.882812 31.296875 48.808594 31.328125 C 48.453125 31.519531 48.15625 31.75 47.839844 32 C 47.726562 32.089844 47.613281 32.179688 47.492188 32.273438 C 47.40625 32.351562 47.320312 32.429688 47.230469 32.511719 C 47.230469 32.597656 47.230469 32.679688 47.230469 32.769531 C 47.164062 32.796875 47.097656 32.824219 47.03125 32.851562 C 46.589844 33.097656 46.234375 33.421875 45.855469 33.753906 C 45.777344 33.820312 45.695312 33.890625 45.613281 33.960938 C 45.199219 34.320312 44.785156 34.683594 44.375 35.046875 C 42.785156 36.445312 42.785156 36.445312 42.144531 36.519531 C 41.351562 36.445312 40.824219 35.863281 40.257812 35.351562 C 40.070312 35.175781 40.070312 35.175781 39.808594 35.199219 C 39.808594 35.117188 39.808594 35.03125 39.808594 34.945312 C 39.722656 34.945312 39.640625 34.945312 39.550781 34.945312 C 39.550781 34.859375 39.550781 34.773438 39.550781 34.6875 C 39.160156 34.300781 39.160156 34.300781 38.65625 34.175781 C 38.65625 34.089844 38.65625 34.007812 38.65625 33.921875 C 38.414062 33.695312 38.414062 33.695312 38.113281 33.472656 C 38.011719 33.394531 37.910156 33.316406 37.804688 33.234375 C 37.539062 33.050781 37.285156 32.902344 36.992188 32.769531 C 36.992188 32.683594 36.992188 32.597656 36.992188 32.511719 C 36.792969 32.335938 36.585938 32.167969 36.375 32.007812 C 35.742188 31.515625 35.742188 31.515625 35.496094 31.261719 C 35.335938 31.074219 35.335938 31.074219 35.070312 31.105469 C 35.070312 31.019531 35.070312 30.933594 35.070312 30.847656 C 34.851562 30.640625 34.617188 30.445312 34.382812 30.257812 C 34.257812 30.152344 34.128906 30.046875 33.996094 29.9375 C 33.699219 29.671875 33.699219 29.671875 33.40625 29.695312 C 33.40625 29.613281 33.40625 29.527344 33.40625 29.441406 C 33.015625 29.054688 33.015625 29.054688 32.511719 28.929688 C 32.511719 28.84375 32.511719 28.757812 32.511719 28.671875 C 32.3125 28.492188 32.101562 28.320312 31.886719 28.152344 C 31.175781 27.582031 30.5 26.980469 29.824219 26.367188 C 29.632812 26.195312 29.441406 26.019531 29.246094 25.847656 C 29.167969 25.773438 29.085938 25.703125 29.003906 25.628906 C 28.808594 25.445312 28.808594 25.445312 28.542969 25.472656 C 28.542969 25.386719 28.542969 25.304688 28.542969 25.214844 C 28.355469 25.011719 28.355469 25.011719 28.113281 24.816406 C 28.03125 24.746094 27.953125 24.679688 27.867188 24.605469 C 27.660156 24.421875 27.660156 24.421875 27.390625 24.449219 C 27.390625 24.363281 27.390625 24.277344 27.390625 24.191406 C 27 23.804688 27 23.804688 26.496094 23.679688 Z M 26.496094 23.679688 "/>
<path style=" stroke:none;fill-rule:nonzero;fill:rgb(23.921569%,80.392158%,35.294119%);fill-opacity:1;" d="M 4.699219 23.773438 C 4.84375 23.773438 4.988281 23.773438 5.132812 23.773438 C 5.367188 23.773438 5.367188 23.773438 5.605469 23.773438 C 5.851562 23.773438 5.851562 23.773438 6.101562 23.769531 C 6.554688 23.769531 7.003906 23.769531 7.453125 23.769531 C 7.832031 23.769531 8.207031 23.769531 8.582031 23.769531 C 9.472656 23.765625 10.363281 23.765625 11.25 23.769531 C 12.164062 23.769531 13.082031 23.765625 13.996094 23.765625 C 14.785156 23.761719 15.570312 23.761719 16.359375 23.761719 C 16.828125 23.761719 17.296875 23.761719 17.769531 23.757812 C 18.292969 23.757812 18.816406 23.757812 19.339844 23.761719 C 19.496094 23.757812 19.648438 23.757812 19.808594 23.757812 C 20.710938 23.761719 21.417969 23.800781 22.136719 24.398438 C 22.351562 24.882812 22.375 25.339844 22.273438 25.855469 C 21.992188 26.207031 21.777344 26.421875 21.375 26.625 C 21.140625 26.636719 20.90625 26.640625 20.671875 26.640625 C 20.523438 26.640625 20.375 26.640625 20.222656 26.644531 C 20.054688 26.644531 19.890625 26.644531 19.722656 26.644531 C 19.546875 26.644531 19.371094 26.644531 19.199219 26.644531 C 18.722656 26.644531 18.25 26.644531 17.773438 26.644531 C 17.378906 26.644531 16.980469 26.644531 16.585938 26.644531 C 15.652344 26.648438 14.71875 26.648438 13.785156 26.648438 C 12.820312 26.648438 11.855469 26.648438 10.890625 26.652344 C 10.0625 26.652344 9.234375 26.652344 8.410156 26.652344 C 7.914062 26.652344 7.417969 26.652344 6.925781 26.65625 C 6.460938 26.65625 5.996094 26.65625 5.53125 26.65625 C 5.277344 26.65625 5.027344 26.65625 4.773438 26.65625 C 4.550781 26.65625 4.550781 26.65625 4.320312 26.65625 C 4.125 26.65625 4.125 26.65625 3.925781 26.65625 C 3.570312 26.621094 3.367188 26.5625 3.070312 26.367188 C 2.671875 25.800781 2.660156 25.375 2.738281 24.710938 C 2.835938 24.382812 2.925781 24.269531 3.199219 24.0625 C 3.714844 23.863281 4.148438 23.777344 4.699219 23.773438 Z M 4.699219 23.773438 "/>
<path style=" stroke:none;fill-rule:nonzero;fill:rgb(26.274511%,80.000001%,36.862746%);fill-opacity:1;" d="M 52.609375 33.40625 C 52.855469 33.625 52.855469 33.625 52.992188 33.921875 C 52.976562 34.570312 52.761719 34.859375 52.3125 35.289062 C 52.242188 35.355469 52.167969 35.421875 52.097656 35.488281 C 51.585938 35.933594 51.585938 35.933594 51.199219 36.480469 C 51.117188 36.480469 51.03125 36.480469 50.945312 36.480469 C 50.945312 36.566406 50.945312 36.648438 50.945312 36.734375 C 50.859375 36.734375 50.773438 36.734375 50.6875 36.734375 C 50.6875 36.820312 50.6875 36.90625 50.6875 36.992188 C 50.605469 36.992188 50.519531 36.992188 50.433594 36.992188 C 50.347656 37.160156 50.261719 37.328125 50.175781 37.503906 C 50.34375 37.628906 50.515625 37.757812 50.6875 37.886719 C 51.097656 37.710938 51.324219 37.519531 51.601562 37.167969 C 51.792969 36.921875 51.792969 36.921875 51.96875 36.734375 C 52.050781 36.734375 52.136719 36.734375 52.222656 36.734375 C 52.222656 36.652344 52.222656 36.566406 52.222656 36.480469 C 52.308594 36.480469 52.394531 36.480469 52.480469 36.480469 C 52.480469 36.394531 52.480469 36.3125 52.480469 36.222656 C 52.648438 36.058594 52.648438 36.058594 52.894531 35.855469 C 53.472656 35.367188 54 34.835938 54.523438 34.292969 C 54.691406 34.121094 54.863281 33.957031 55.039062 33.792969 C 55.125 33.792969 55.207031 33.792969 55.296875 33.792969 C 55.296875 33.707031 55.296875 33.621094 55.296875 33.535156 C 55.625 33.320312 55.800781 33.28125 56.199219 33.296875 C 56.574219 33.40625 56.574219 33.40625 56.816406 33.632812 C 56.988281 33.976562 57.007812 34.179688 56.960938 34.558594 C 56.875 34.6875 56.792969 34.8125 56.703125 34.945312 C 56.621094 34.945312 56.535156 34.945312 56.449219 34.945312 C 56.363281 35.113281 56.277344 35.28125 56.191406 35.457031 C 56.109375 35.457031 56.023438 35.457031 55.9375 35.457031 C 55.9375 35.539062 55.9375 35.625 55.9375 35.710938 C 55.851562 35.710938 55.765625 35.710938 55.679688 35.710938 C 55.679688 35.796875 55.679688 35.882812 55.679688 35.96875 C 55.59375 35.96875 55.511719 35.96875 55.425781 35.96875 C 55.425781 36.050781 55.425781 36.136719 55.425781 36.222656 C 55.339844 36.222656 55.253906 36.222656 55.167969 36.222656 C 55.125 36.328125 55.125 36.328125 55.082031 36.4375 C 54.859375 36.824219 54.566406 37.113281 54.246094 37.421875 C 54.152344 37.515625 54.152344 37.515625 54.050781 37.613281 C 53.84375 37.820312 53.640625 38.019531 53.433594 38.222656 C 53.226562 38.425781 53.019531 38.632812 52.8125 38.835938 C 52.683594 38.960938 52.554688 39.089844 52.425781 39.214844 C 52.089844 39.542969 52.089844 39.542969 51.839844 39.9375 C 51.753906 39.9375 51.671875 39.9375 51.585938 39.9375 C 51.585938 40.019531 51.585938 40.105469 51.585938 40.191406 C 51.375 40.40625 51.375 40.40625 51.070312 40.574219 C 50.65625 40.535156 50.65625 40.535156 50.304688 40.449219 C 50.304688 40.363281 50.304688 40.277344 50.304688 40.191406 C 50.21875 40.191406 50.136719 40.191406 50.046875 40.191406 C 50.046875 40.109375 50.046875 40.023438 50.046875 39.9375 C 49.972656 39.90625 49.894531 39.871094 49.816406 39.839844 C 49.488281 39.652344 49.347656 39.492188 49.152344 39.167969 C 49.105469 38.957031 49.0625 38.742188 49.023438 38.527344 C 48.96875 38.585938 48.914062 38.644531 48.859375 38.703125 C 48.613281 38.96875 48.363281 39.226562 48.113281 39.488281 C 48.027344 39.578125 47.941406 39.671875 47.855469 39.765625 C 47.203125 40.433594 47.203125 40.433594 46.65625 40.507812 C 46.5 40.476562 46.5 40.476562 46.335938 40.449219 C 46.335938 40.363281 46.335938 40.277344 46.335938 40.191406 C 46.25 40.191406 46.167969 40.191406 46.078125 40.191406 C 46.078125 40.109375 46.078125 40.023438 46.078125 39.9375 C 45.976562 39.890625 45.976562 39.890625 45.871094 39.847656 C 45.460938 39.621094 45.148438 39.355469 44.800781 39.039062 C 44.800781 38.957031 44.800781 38.871094 44.800781 38.785156 C 44.714844 38.785156 44.632812 38.785156 44.542969 38.785156 C 44.542969 38.699219 44.542969 38.613281 44.542969 38.527344 C 44.472656 38.5 44.402344 38.476562 44.328125 38.449219 C 43.90625 38.195312 43.671875 37.90625 43.390625 37.503906 C 43.324219 37.070312 43.351562 36.835938 43.519531 36.433594 C 43.84375 36.167969 44.113281 36.136719 44.527344 36.15625 C 45.019531 36.277344 45.375 36.605469 45.695312 36.992188 C 45.695312 37.078125 45.695312 37.160156 45.695312 37.246094 C 45.78125 37.246094 45.863281 37.246094 45.953125 37.246094 C 45.953125 37.332031 45.953125 37.417969 45.953125 37.503906 C 46.027344 37.539062 46.101562 37.578125 46.175781 37.617188 C 46.441406 37.75 46.710938 37.882812 46.976562 38.015625 C 46.976562 37.929688 46.976562 37.847656 46.976562 37.761719 C 47.058594 37.761719 47.144531 37.761719 47.230469 37.761719 C 47.230469 37.675781 47.230469 37.589844 47.230469 37.503906 C 47.316406 37.503906 47.402344 37.503906 47.488281 37.503906 C 47.488281 37.417969 47.488281 37.335938 47.488281 37.246094 C 47.574219 37.246094 47.65625 37.246094 47.742188 37.246094 C 47.742188 37.164062 47.742188 37.078125 47.742188 36.992188 C 47.828125 36.992188 47.914062 36.992188 48 36.992188 C 48 36.90625 48 36.824219 48 36.734375 C 48.085938 36.734375 48.167969 36.734375 48.257812 36.734375 C 48.257812 36.652344 48.257812 36.566406 48.257812 36.480469 C 48.339844 36.480469 48.425781 36.480469 48.511719 36.480469 C 48.511719 36.394531 48.511719 36.3125 48.511719 36.222656 C 48.597656 36.222656 48.679688 36.222656 48.769531 36.222656 C 48.769531 36.140625 48.769531 36.054688 48.769531 35.96875 C 48.851562 35.96875 48.9375 35.96875 49.023438 35.96875 C 49.023438 35.882812 49.023438 35.800781 49.023438 35.710938 C 49.203125 35.535156 49.203125 35.535156 49.457031 35.328125 C 50.015625 34.855469 50.523438 34.339844 51.035156 33.808594 C 51.566406 33.316406 51.898438 33.195312 52.609375 33.40625 Z M 52.609375 33.40625 "/>
<path style=" stroke:none;fill-rule:nonzero;fill:rgb(24.313726%,80.784315%,35.294119%);fill-opacity:1;" d="M 7.96875 30.699219 C 8.144531 30.699219 8.144531 30.699219 8.328125 30.699219 C 8.457031 30.699219 8.585938 30.699219 8.722656 30.699219 C 8.925781 30.695312 8.925781 30.695312 9.132812 30.695312 C 9.585938 30.691406 10.039062 30.691406 10.492188 30.691406 C 10.648438 30.6875 10.804688 30.6875 10.960938 30.6875 C 11.78125 30.683594 12.597656 30.683594 13.414062 30.683594 C 14.257812 30.679688 15.105469 30.675781 15.949219 30.671875 C 16.601562 30.667969 17.25 30.667969 17.898438 30.667969 C 18.210938 30.664062 18.519531 30.664062 18.832031 30.660156 C 19.269531 30.660156 19.703125 30.660156 20.140625 30.660156 C 20.269531 30.660156 20.398438 30.65625 20.53125 30.65625 C 21.09375 30.660156 21.414062 30.664062 21.902344 30.964844 C 22.246094 31.34375 22.292969 31.554688 22.296875 32.054688 C 22.296875 32.15625 22.300781 32.257812 22.300781 32.359375 C 22.273438 32.640625 22.273438 32.640625 22.015625 33.023438 C 21.929688 33.023438 21.847656 33.023438 21.761719 33.023438 C 21.761719 33.109375 21.761719 33.191406 21.761719 33.28125 C 21.402344 33.398438 21.179688 33.425781 20.808594 33.425781 C 20.636719 33.425781 20.636719 33.425781 20.457031 33.429688 C 20.332031 33.429688 20.203125 33.429688 20.074219 33.429688 C 19.871094 33.429688 19.871094 33.429688 19.667969 33.429688 C 19.222656 33.433594 18.78125 33.433594 18.335938 33.433594 C 18.027344 33.433594 17.722656 33.433594 17.414062 33.4375 C 16.769531 33.4375 16.121094 33.4375 15.476562 33.4375 C 14.648438 33.4375 13.820312 33.441406 12.992188 33.445312 C 12.355469 33.449219 11.71875 33.449219 11.082031 33.449219 C 10.777344 33.449219 10.472656 33.449219 10.167969 33.453125 C 9.742188 33.453125 9.3125 33.453125 8.886719 33.453125 C 8.761719 33.453125 8.636719 33.457031 8.503906 33.457031 C 7.871094 33.453125 7.425781 33.445312 6.910156 33.023438 C 6.613281 32.640625 6.597656 32.21875 6.605469 31.738281 C 6.691406 31.316406 6.96875 31.109375 7.296875 30.847656 C 7.496094 30.648438 7.691406 30.703125 7.96875 30.699219 Z M 7.96875 30.699219 "/>
<path style=" stroke:none;fill-rule:nonzero;fill:rgb(24.313726%,80.784315%,34.901962%);fill-opacity:1;" d="M 14.21875 37.328125 C 14.371094 37.324219 14.523438 37.324219 14.683594 37.324219 C 14.847656 37.324219 15.011719 37.324219 15.183594 37.324219 C 15.355469 37.324219 15.527344 37.324219 15.699219 37.324219 C 16.0625 37.324219 16.421875 37.324219 16.78125 37.324219 C 17.242188 37.328125 17.703125 37.328125 18.164062 37.324219 C 18.519531 37.324219 18.875 37.324219 19.230469 37.324219 C 19.484375 37.324219 19.734375 37.324219 19.988281 37.324219 C 20.21875 37.324219 20.21875 37.324219 20.453125 37.328125 C 20.589844 37.328125 20.722656 37.328125 20.863281 37.328125 C 21.320312 37.386719 21.625 37.523438 22.015625 37.761719 C 22.359375 38.277344 22.359375 38.691406 22.273438 39.296875 C 21.96875 39.824219 21.6875 40.007812 21.121094 40.191406 C 20.765625 40.226562 20.765625 40.226562 20.378906 40.226562 C 20.160156 40.230469 20.160156 40.230469 19.933594 40.230469 C 19.777344 40.230469 19.621094 40.230469 19.460938 40.230469 C 19.296875 40.230469 19.136719 40.230469 18.96875 40.230469 C 18.625 40.234375 18.285156 40.234375 17.941406 40.230469 C 17.503906 40.230469 17.066406 40.234375 16.628906 40.238281 C 16.210938 40.238281 15.792969 40.238281 15.371094 40.238281 C 15.136719 40.242188 15.136719 40.242188 14.898438 40.242188 C 14.011719 40.238281 13.429688 40.171875 12.695312 39.640625 C 12.460938 39.308594 12.429688 39.0625 12.414062 38.65625 C 12.566406 38.164062 12.671875 37.855469 13.085938 37.542969 C 13.496094 37.351562 13.765625 37.328125 14.21875 37.328125 Z M 14.21875 37.328125 "/>
<path style=" stroke:none;fill-rule:nonzero;fill:rgb(30.588236%,70.588237%,38.82353%);fill-opacity:1;" d="M 25.292969 19.296875 C 25.476562 19.296875 25.476562 19.296875 25.660156 19.296875 C 25.796875 19.296875 25.929688 19.296875 26.066406 19.296875 C 26.210938 19.296875 26.351562 19.296875 26.496094 19.296875 C 26.976562 19.296875 27.453125 19.296875 27.933594 19.300781 C 28.273438 19.300781 28.617188 19.300781 28.957031 19.296875 C 29.695312 19.296875 30.429688 19.300781 31.167969 19.300781 C 32.234375 19.304688 33.300781 19.304688 34.367188 19.304688 C 36.09375 19.304688 37.824219 19.304688 39.554688 19.308594 C 41.234375 19.3125 42.914062 19.3125 44.59375 19.3125 C 44.695312 19.3125 44.800781 19.3125 44.90625 19.3125 C 45.425781 19.316406 45.945312 19.316406 46.464844 19.316406 C 50.773438 19.316406 55.082031 19.324219 59.390625 19.328125 C 59.390625 19.414062 59.390625 19.496094 59.390625 19.585938 C 59.320312 19.585938 59.246094 19.585938 59.171875 19.585938 C 54.886719 19.59375 50.601562 19.601562 46.3125 19.613281 C 45.800781 19.613281 45.285156 19.617188 44.769531 19.617188 C 44.667969 19.617188 44.566406 19.617188 44.460938 19.617188 C 42.800781 19.621094 41.140625 19.625 39.484375 19.628906 C 37.78125 19.632812 36.078125 19.636719 34.378906 19.640625 C 33.328125 19.644531 32.277344 19.648438 31.226562 19.648438 C 30.503906 19.648438 29.785156 19.652344 29.066406 19.652344 C 28.648438 19.65625 28.234375 19.65625 27.820312 19.65625 C 27.367188 19.65625 26.917969 19.660156 26.46875 19.660156 C 26.335938 19.660156 26.203125 19.660156 26.070312 19.660156 C 25.195312 19.664062 25.195312 19.664062 24.449219 20.097656 C 24.226562 20.425781 24.226562 20.425781 24.0625 20.734375 C 24.023438 20.734375 23.980469 20.734375 23.9375 20.734375 C 23.890625 20.03125 23.890625 20.03125 24.105469 19.742188 C 24.53125 19.425781 24.761719 19.296875 25.292969 19.296875 Z M 25.292969 19.296875 "/>
<path style=" stroke:none;fill-rule:nonzero;fill:rgb(23.921569%,80.784315%,35.294119%);fill-opacity:1;" d="M 56.574219 33.40625 C 56.875 33.6875 56.949219 33.84375 57 34.246094 C 56.960938 34.558594 56.960938 34.558594 56.703125 34.945312 C 56.621094 34.945312 56.535156 34.945312 56.449219 34.945312 C 56.363281 35.113281 56.277344 35.28125 56.191406 35.457031 C 56.109375 35.457031 56.023438 35.457031 55.9375 35.457031 C 55.9375 35.539062 55.9375 35.625 55.9375 35.710938 C 55.851562 35.710938 55.765625 35.710938 55.679688 35.710938 C 55.679688 35.796875 55.679688 35.882812 55.679688 35.96875 C 55.59375 35.96875 55.511719 35.96875 55.425781 35.96875 C 55.425781 36.050781 55.425781 36.136719 55.425781 36.222656 C 55.128906 36.308594 54.832031 36.394531 54.527344 36.480469 C 54.527344 36.605469 54.527344 36.734375 54.527344 36.863281 C 54.402344 36.863281 54.273438 36.863281 54.144531 36.863281 C 54.105469 36.941406 54.066406 37.023438 54.023438 37.105469 C 53.9375 37.28125 53.847656 37.457031 53.761719 37.632812 C 53.570312 37.695312 53.570312 37.695312 53.375 37.761719 C 53.332031 37.886719 53.292969 38.011719 53.246094 38.144531 C 53.035156 38.101562 52.824219 38.058594 52.609375 38.015625 C 52.691406 37.890625 52.777344 37.761719 52.863281 37.632812 C 52.878906 37.402344 52.886719 37.171875 52.886719 36.945312 C 52.929688 36.289062 52.929688 36.289062 53.199219 36 C 53.421875 35.847656 53.65625 35.714844 53.886719 35.585938 C 53.886719 35.5 53.886719 35.414062 53.886719 35.328125 C 53.988281 35.230469 54.089844 35.132812 54.191406 35.03125 C 54.542969 34.71875 54.542969 34.71875 54.664062 34.34375 C 54.785156 34.046875 54.785156 34.046875 55.054688 33.878906 C 55.136719 33.851562 55.214844 33.820312 55.296875 33.792969 C 55.296875 33.707031 55.296875 33.621094 55.296875 33.535156 C 55.753906 33.238281 56.058594 33.253906 56.574219 33.40625 Z M 56.574219 33.40625 "/>
<path style=" stroke:none;fill-rule:nonzero;fill:rgb(28.235295%,74.117649%,37.254903%);fill-opacity:1;" d="M 26.367188 23.425781 C 26.535156 23.425781 26.707031 23.425781 26.878906 23.425781 C 26.921875 23.59375 26.964844 23.761719 27.007812 23.9375 C 26.839844 23.851562 26.671875 23.765625 26.496094 23.679688 C 26.539062 29.507812 26.582031 35.339844 26.625 41.34375 C 35.683594 41.40625 35.683594 41.40625 44.929688 41.472656 C 44.886719 41.554688 44.84375 41.640625 44.800781 41.726562 C 44.660156 41.726562 44.660156 41.726562 44.515625 41.726562 C 42.25 41.726562 39.980469 41.722656 37.710938 41.722656 C 36.613281 41.722656 35.515625 41.71875 34.417969 41.71875 C 33.460938 41.71875 32.507812 41.714844 31.550781 41.714844 C 31.042969 41.714844 30.539062 41.714844 30.03125 41.714844 C 29.554688 41.714844 29.078125 41.714844 28.601562 41.714844 C 28.34375 41.714844 28.082031 41.710938 27.824219 41.710938 C 27.671875 41.710938 27.519531 41.710938 27.359375 41.710938 C 27.226562 41.710938 27.09375 41.710938 26.957031 41.710938 C 26.609375 41.714844 26.609375 41.714844 26.238281 41.855469 C 26.078125 40.992188 26.097656 40.136719 26.105469 39.261719 C 26.109375 39.089844 26.109375 38.917969 26.109375 38.746094 C 26.113281 38.285156 26.117188 37.820312 26.121094 37.359375 C 26.125 36.875 26.128906 36.386719 26.132812 35.902344 C 26.136719 35.089844 26.144531 34.277344 26.148438 33.460938 C 26.15625 32.519531 26.164062 31.578125 26.171875 30.636719 C 26.175781 29.730469 26.183594 28.824219 26.191406 27.917969 C 26.195312 27.535156 26.195312 27.148438 26.199219 26.761719 C 26.203125 26.226562 26.207031 25.6875 26.210938 25.148438 C 26.210938 24.988281 26.214844 24.828125 26.214844 24.664062 C 26.214844 24.515625 26.21875 24.371094 26.21875 24.222656 C 26.21875 24.09375 26.222656 23.96875 26.222656 23.835938 C 26.238281 23.550781 26.238281 23.550781 26.367188 23.425781 Z M 26.367188 23.425781 "/>
<path style=" stroke:none;fill-rule:nonzero;fill:rgb(45.490196%,86.274511%,48.627451%);fill-opacity:1;" d="M 59.777344 19.585938 C 60.144531 19.917969 60.335938 20.117188 60.414062 20.609375 C 60.429688 20.90625 60.433594 21.207031 60.433594 21.507812 C 60.433594 21.644531 60.433594 21.644531 60.433594 21.785156 C 60.4375 22.089844 60.4375 22.390625 60.4375 22.695312 C 60.4375 22.914062 60.4375 23.132812 60.4375 23.351562 C 60.441406 23.941406 60.441406 24.535156 60.441406 25.128906 C 60.441406 25.496094 60.441406 25.867188 60.441406 26.238281 C 60.445312 27.398438 60.445312 28.554688 60.445312 29.714844 C 60.445312 31.050781 60.449219 32.386719 60.453125 33.722656 C 60.457031 34.757812 60.457031 35.792969 60.457031 36.824219 C 60.457031 37.441406 60.457031 38.058594 60.460938 38.675781 C 60.460938 39.257812 60.464844 39.835938 60.460938 40.417969 C 60.460938 40.632812 60.460938 40.84375 60.464844 41.058594 C 60.464844 41.347656 60.464844 41.640625 60.464844 41.929688 C 60.464844 42.09375 60.464844 42.253906 60.464844 42.421875 C 60.410156 42.953125 60.261719 43.300781 60.03125 43.777344 C 59.949219 43.648438 59.863281 43.523438 59.777344 43.390625 C 59.902344 43.351562 60.03125 43.308594 60.160156 43.265625 C 60.148438 40.289062 60.136719 37.316406 60.125 34.339844 C 60.117188 32.960938 60.109375 31.578125 60.105469 30.199219 C 60.101562 28.996094 60.097656 27.792969 60.089844 26.589844 C 60.085938 25.949219 60.085938 25.3125 60.082031 24.675781 C 60.082031 24.078125 60.078125 23.476562 60.074219 22.875 C 60.074219 22.65625 60.074219 22.4375 60.074219 22.214844 C 60.070312 21.914062 60.070312 21.613281 60.066406 21.3125 C 60.066406 21.144531 60.066406 20.976562 60.066406 20.804688 C 60.03125 20.355469 59.9375 20 59.777344 19.585938 Z M 59.777344 19.585938 "/>
<path style=" stroke:none;fill-rule:nonzero;fill:rgb(62.352943%,82.745099%,66.666669%);fill-opacity:1;" d="M 3.96875 23.808594 C 6.171875 23.800781 8.375 23.792969 10.582031 23.789062 C 11.605469 23.785156 12.628906 23.785156 13.652344 23.777344 C 14.542969 23.773438 15.433594 23.773438 16.328125 23.773438 C 16.800781 23.769531 17.273438 23.769531 17.746094 23.765625 C 18.273438 23.765625 18.800781 23.765625 19.328125 23.765625 C 19.5625 23.761719 19.5625 23.761719 19.800781 23.761719 C 20.585938 23.761719 21.207031 23.777344 21.886719 24.191406 C 21.929688 24.320312 21.972656 24.445312 22.015625 24.574219 C 21.890625 24.574219 21.761719 24.574219 21.632812 24.574219 C 21.589844 24.492188 21.546875 24.40625 21.503906 24.320312 C 17.214844 24.234375 12.929688 24.171875 8.640625 24.121094 C 8.519531 24.117188 8.402344 24.117188 8.277344 24.117188 C 6.800781 24.097656 5.320312 24.082031 3.839844 24.0625 C 3.882812 23.980469 3.925781 23.894531 3.96875 23.808594 Z M 3.96875 23.808594 "/>
<path style=" stroke:none;fill-rule:nonzero;fill:rgb(30.588236%,69.411767%,37.254903%);fill-opacity:1;" d="M 22.015625 31.230469 C 22.273438 31.488281 22.273438 31.488281 22.304688 31.75 C 22.304688 31.851562 22.304688 31.953125 22.304688 32.054688 C 22.304688 32.207031 22.304688 32.207031 22.304688 32.359375 C 22.273438 32.640625 22.273438 32.640625 22.015625 33.023438 C 21.929688 33.023438 21.847656 33.023438 21.761719 33.023438 C 21.761719 33.109375 21.761719 33.191406 21.761719 33.28125 C 21.398438 33.398438 21.179688 33.425781 20.808594 33.425781 C 20.632812 33.425781 20.632812 33.425781 20.457031 33.429688 C 20.265625 33.429688 20.265625 33.429688 20.070312 33.429688 C 19.933594 33.429688 19.800781 33.429688 19.664062 33.429688 C 19.21875 33.433594 18.773438 33.433594 18.328125 33.433594 C 18.019531 33.433594 17.710938 33.433594 17.402344 33.4375 C 16.753906 33.4375 16.109375 33.4375 15.460938 33.4375 C 14.632812 33.441406 13.800781 33.441406 12.972656 33.445312 C 12.332031 33.449219 11.695312 33.449219 11.058594 33.449219 C 10.753906 33.449219 10.445312 33.449219 10.140625 33.453125 C 9.714844 33.453125 9.285156 33.453125 8.859375 33.453125 C 8.730469 33.453125 8.605469 33.457031 8.472656 33.457031 C 8.355469 33.457031 8.238281 33.457031 8.121094 33.453125 C 7.96875 33.457031 7.96875 33.457031 7.8125 33.457031 C 7.550781 33.40625 7.550781 33.40625 7.167969 33.023438 C 11.898438 33.023438 16.628906 33.023438 21.503906 33.023438 C 21.378906 32.769531 21.378906 32.769531 21.246094 32.511719 C 21.332031 32.511719 21.417969 32.511719 21.503906 32.511719 C 21.503906 32.425781 21.503906 32.34375 21.503906 32.257812 C 21.671875 32.257812 21.84375 32.257812 22.015625 32.257812 C 22.015625 31.917969 22.015625 31.582031 22.015625 31.230469 Z M 22.015625 31.230469 "/>
<path style=" stroke:none;fill-rule:nonzero;fill:rgb(35.686275%,76.862746%,43.529412%);fill-opacity:1;" d="M 8.78125 30.652344 C 8.917969 30.652344 9.054688 30.652344 9.195312 30.652344 C 9.644531 30.648438 10.097656 30.648438 10.546875 30.652344 C 10.863281 30.652344 11.175781 30.652344 11.488281 30.652344 C 12.144531 30.648438 12.804688 30.652344 13.460938 30.652344 C 14.300781 30.65625 15.144531 30.65625 15.988281 30.652344 C 16.636719 30.648438 17.28125 30.648438 17.929688 30.652344 C 18.242188 30.652344 18.550781 30.652344 18.863281 30.648438 C 19.296875 30.648438 19.730469 30.652344 20.164062 30.652344 C 20.292969 30.652344 20.421875 30.652344 20.554688 30.652344 C 21.425781 30.660156 21.425781 30.660156 21.84375 30.980469 C 21.902344 31.0625 21.957031 31.144531 22.015625 31.230469 C 21.804688 31.230469 21.59375 31.230469 21.375 31.230469 C 21.375 31.148438 21.375 31.0625 21.375 30.976562 C 21.273438 30.996094 21.171875 31.019531 21.066406 31.039062 C 20.511719 31.117188 19.972656 31.121094 19.414062 31.117188 C 19.292969 31.117188 19.175781 31.117188 19.054688 31.117188 C 18.800781 31.117188 18.546875 31.113281 18.289062 31.113281 C 17.886719 31.113281 17.484375 31.109375 17.082031 31.109375 C 16.222656 31.109375 15.367188 31.105469 14.511719 31.105469 C 13.519531 31.101562 12.527344 31.097656 11.535156 31.097656 C 11.136719 31.097656 10.738281 31.09375 10.339844 31.09375 C 10.097656 31.09375 9.855469 31.09375 9.609375 31.089844 C 9.5 31.089844 9.390625 31.089844 9.273438 31.089844 C 9.171875 31.089844 9.070312 31.089844 8.964844 31.089844 C 8.878906 31.089844 8.789062 31.089844 8.699219 31.089844 C 8.429688 31.105469 8.195312 31.160156 7.9375 31.230469 C 7.808594 31.265625 7.683594 31.300781 7.550781 31.335938 C 7.144531 31.496094 6.941406 31.671875 6.65625 32 C 6.6875 31.550781 6.726562 31.296875 7.027344 30.953125 C 7.605469 30.613281 8.117188 30.648438 8.78125 30.652344 Z M 8.78125 30.652344 "/>
<path style=" stroke:none;fill-rule:nonzero;fill:rgb(42.352942%,79.607844%,51.764709%);fill-opacity:1;" d="M 22.144531 38.144531 C 22.1875 38.144531 22.226562 38.144531 22.273438 38.144531 C 22.351562 39.15625 22.351562 39.15625 22.054688 39.671875 C 21.539062 40.132812 21.058594 40.222656 20.378906 40.226562 C 20.160156 40.230469 20.160156 40.230469 19.933594 40.230469 C 19.777344 40.230469 19.621094 40.230469 19.460938 40.230469 C 19.296875 40.230469 19.136719 40.230469 18.96875 40.230469 C 18.625 40.234375 18.285156 40.234375 17.941406 40.230469 C 17.503906 40.230469 17.066406 40.234375 16.628906 40.238281 C 16.210938 40.238281 15.792969 40.238281 15.371094 40.238281 C 15.136719 40.242188 15.136719 40.242188 14.898438 40.242188 C 13.519531 40.234375 13.519531 40.234375 12.929688 39.808594 C 12.84375 39.679688 12.757812 39.554688 12.671875 39.425781 C 12.773438 39.488281 12.773438 39.488281 12.878906 39.550781 C 13.269531 39.714844 13.574219 39.710938 14 39.710938 C 14.246094 39.710938 14.246094 39.710938 14.5 39.710938 C 14.679688 39.710938 14.859375 39.710938 15.039062 39.710938 C 15.226562 39.710938 15.410156 39.710938 15.59375 39.710938 C 15.980469 39.710938 16.371094 39.707031 16.757812 39.707031 C 17.253906 39.703125 17.75 39.703125 18.246094 39.703125 C 18.625 39.703125 19.007812 39.703125 19.390625 39.703125 C 19.574219 39.703125 19.753906 39.703125 19.9375 39.703125 C 20.195312 39.699219 20.449219 39.699219 20.703125 39.699219 C 20.921875 39.699219 20.921875 39.699219 21.144531 39.695312 C 21.515625 39.695312 21.515625 39.695312 21.886719 39.550781 C 21.972656 39.085938 22.058594 38.621094 22.144531 38.144531 Z M 22.144531 38.144531 "/>
<path style=" stroke:none;fill-rule:nonzero;fill:rgb(41.568628%,78.823531%,50.196081%);fill-opacity:1;" d="M 23.808594 20.097656 C 23.851562 20.097656 23.890625 20.097656 23.9375 20.097656 C 23.9375 20.210938 23.9375 20.328125 23.9375 20.445312 C 23.941406 23.265625 23.949219 26.085938 23.960938 28.90625 C 23.964844 30.269531 23.96875 31.632812 23.96875 32.996094 C 23.972656 34.183594 23.976562 35.371094 23.980469 36.558594 C 23.984375 37.191406 23.984375 37.820312 23.984375 38.449219 C 23.984375 39.039062 23.988281 39.632812 23.992188 40.226562 C 23.992188 40.441406 23.992188 40.660156 23.992188 40.875 C 23.960938 42.410156 23.960938 42.410156 24.574219 43.777344 C 24.976562 43.921875 24.976562 43.921875 25.34375 43.902344 C 25.042969 44.085938 24.898438 44.171875 24.542969 44.113281 C 24.46875 44.085938 24.394531 44.058594 24.320312 44.03125 C 24.320312 43.949219 24.320312 43.863281 24.320312 43.777344 C 24.234375 43.777344 24.152344 43.777344 24.0625 43.777344 C 23.757812 43.316406 23.773438 42.992188 23.777344 42.460938 C 23.777344 42.367188 23.777344 42.269531 23.777344 42.171875 C 23.777344 41.851562 23.777344 41.53125 23.777344 41.210938 C 23.777344 40.980469 23.777344 40.75 23.777344 40.519531 C 23.777344 39.898438 23.78125 39.273438 23.78125 38.648438 C 23.785156 37.996094 23.785156 37.34375 23.785156 36.691406 C 23.785156 35.457031 23.785156 34.222656 23.789062 32.988281 C 23.792969 31.582031 23.792969 30.175781 23.796875 28.773438 C 23.796875 25.878906 23.800781 22.988281 23.808594 20.097656 Z M 23.808594 20.097656 "/>
<path style=" stroke:none;fill-rule:nonzero;fill:rgb(30.19608%,79.215688%,40.000001%);fill-opacity:1;" d="M 44.527344 36.15625 C 45.023438 36.277344 45.382812 36.597656 45.695312 36.992188 C 45.785156 37.273438 45.785156 37.273438 45.824219 37.503906 C 45.65625 37.503906 45.484375 37.503906 45.3125 37.503906 C 45.09375 37.671875 44.882812 37.839844 44.671875 38.015625 C 44.3125 38.175781 44.3125 38.175781 44.03125 38.273438 C 43.410156 37.621094 43.410156 37.621094 43.328125 37.105469 C 43.457031 36.351562 43.734375 36.117188 44.527344 36.15625 Z M 44.527344 36.15625 "/>
<path style=" stroke:none;fill-rule:nonzero;fill:rgb(46.27451%,79.215688%,51.372552%);fill-opacity:1;" d="M 22.144531 24.703125 C 22.1875 24.703125 22.226562 24.703125 22.273438 24.703125 C 22.371094 25.730469 22.371094 25.730469 21.96875 26.238281 C 21.488281 26.605469 21.265625 26.640625 20.667969 26.640625 C 20.519531 26.640625 20.371094 26.640625 20.214844 26.640625 C 19.96875 26.640625 19.96875 26.640625 19.714844 26.636719 C 19.539062 26.636719 19.363281 26.636719 19.1875 26.636719 C 18.710938 26.636719 18.234375 26.636719 17.757812 26.636719 C 17.257812 26.636719 16.761719 26.636719 16.261719 26.636719 C 15.320312 26.636719 14.375 26.632812 13.433594 26.632812 C 12.359375 26.632812 11.285156 26.632812 10.210938 26.628906 C 8.003906 26.628906 5.792969 26.625 3.585938 26.625 C 3.585938 26.582031 3.585938 26.539062 3.585938 26.496094 C 9.328125 26.496094 15.074219 26.496094 20.992188 26.496094 C 20.992188 26.410156 20.992188 26.328125 20.992188 26.238281 C 21.433594 26.175781 21.433594 26.175781 21.886719 26.113281 C 21.886719 25.941406 21.886719 25.773438 21.886719 25.601562 C 21.972656 25.601562 22.058594 25.601562 22.144531 25.601562 C 22.144531 25.304688 22.144531 25.007812 22.144531 24.703125 Z M 22.144531 24.703125 "/>
<path style=" stroke:none;fill-rule:nonzero;fill:rgb(34.509805%,69.01961%,42.352942%);fill-opacity:1;" d="M 26.367188 23.425781 C 26.535156 23.425781 26.707031 23.425781 26.878906 23.425781 C 26.921875 23.59375 26.964844 23.761719 27.007812 23.9375 C 26.839844 23.851562 26.671875 23.765625 26.496094 23.679688 C 26.496094 29.507812 26.496094 35.339844 26.496094 41.34375 C 26.453125 41.34375 26.410156 41.34375 26.367188 41.34375 C 26.347656 39.027344 26.328125 36.707031 26.3125 34.390625 C 26.304688 33.316406 26.292969 32.238281 26.285156 31.164062 C 26.277344 30.226562 26.269531 29.289062 26.261719 28.351562 C 26.257812 27.855469 26.253906 27.355469 26.25 26.859375 C 26.246094 26.394531 26.242188 25.925781 26.238281 25.460938 C 26.238281 25.207031 26.234375 24.953125 26.230469 24.695312 C 26.230469 24.546875 26.230469 24.398438 26.230469 24.242188 C 26.226562 24.113281 26.226562 23.980469 26.226562 23.84375 C 26.238281 23.550781 26.238281 23.550781 26.367188 23.425781 Z M 26.367188 23.425781 "/>
<path style=" stroke:none;fill-rule:nonzero;fill:rgb(50.588238%,83.137256%,57.254905%);fill-opacity:1;" d="M 18.457031 23.769531 C 18.765625 23.769531 19.070312 23.765625 19.375 23.761719 C 19.574219 23.761719 19.769531 23.761719 19.96875 23.761719 C 20.058594 23.761719 20.148438 23.757812 20.242188 23.757812 C 20.886719 23.765625 21.328125 23.886719 21.886719 24.191406 C 21.953125 24.382812 21.953125 24.382812 22.015625 24.574219 C 21.890625 24.574219 21.761719 24.574219 21.632812 24.574219 C 21.570312 24.449219 21.570312 24.449219 21.503906 24.320312 C 19.136719 24.277344 16.773438 24.234375 14.335938 24.191406 C 14.335938 24.148438 14.335938 24.109375 14.335938 24.0625 C 15.714844 23.859375 17.066406 23.765625 18.457031 23.769531 Z M 18.457031 23.769531 "/>
<path style=" stroke:none;fill-rule:nonzero;fill:rgb(26.666668%,77.64706%,36.862746%);fill-opacity:1;" d="M 4.628906 23.917969 C 4.785156 23.921875 4.785156 23.921875 4.945312 23.921875 C 5.292969 23.925781 5.640625 23.933594 5.984375 23.9375 C 6.226562 23.941406 6.464844 23.945312 6.707031 23.949219 C 7.339844 23.957031 7.972656 23.96875 8.601562 23.976562 C 9.25 23.988281 9.894531 23.996094 10.539062 24.007812 C 11.804688 24.023438 13.070312 24.042969 14.335938 24.0625 C 14.335938 24.105469 14.335938 24.148438 14.335938 24.191406 C 8.886719 24.253906 8.886719 24.253906 3.328125 24.320312 C 3.328125 24.40625 3.328125 24.488281 3.328125 24.574219 C 3.203125 24.574219 3.074219 24.574219 2.945312 24.574219 C 2.957031 24.761719 2.976562 24.949219 2.992188 25.136719 C 3 25.238281 3.011719 25.34375 3.019531 25.449219 C 3.109375 25.914062 3.476562 26.101562 3.839844 26.367188 C 3.617188 26.464844 3.617188 26.464844 3.328125 26.496094 C 2.992188 26.285156 2.847656 26.097656 2.742188 25.714844 C 2.667969 25.230469 2.652344 24.917969 2.839844 24.457031 C 3.351562 23.875 3.890625 23.902344 4.628906 23.917969 Z M 4.628906 23.917969 "/>
<path style=" stroke:none;fill-rule:nonzero;fill:rgb(44.705883%,78.431374%,51.764709%);fill-opacity:1;" d="M 14.230469 37.332031 C 14.464844 37.332031 14.464844 37.332031 14.703125 37.332031 C 14.953125 37.335938 14.953125 37.335938 15.210938 37.339844 C 15.382812 37.339844 15.558594 37.339844 15.734375 37.339844 C 16.191406 37.339844 16.648438 37.34375 17.101562 37.351562 C 17.570312 37.355469 18.035156 37.355469 18.503906 37.355469 C 19.417969 37.363281 20.332031 37.367188 21.246094 37.375 C 21.246094 37.417969 21.246094 37.460938 21.246094 37.503906 C 21.109375 37.503906 21.109375 37.503906 20.96875 37.507812 C 20.105469 37.515625 19.242188 37.527344 18.378906 37.539062 C 17.933594 37.546875 17.488281 37.554688 17.042969 37.558594 C 16.53125 37.5625 16.023438 37.570312 15.511719 37.578125 C 15.351562 37.582031 15.191406 37.582031 15.027344 37.582031 C 14.878906 37.585938 14.730469 37.589844 14.578125 37.589844 C 14.382812 37.59375 14.382812 37.59375 14.183594 37.597656 C 13.800781 37.632812 13.523438 37.707031 13.183594 37.886719 C 13.140625 38.015625 13.097656 38.140625 13.054688 38.273438 C 12.929688 38.335938 12.929688 38.335938 12.800781 38.398438 C 12.742188 38.644531 12.742188 38.644531 12.71875 38.921875 C 12.703125 39.085938 12.6875 39.253906 12.671875 39.425781 C 12.628906 39.425781 12.585938 39.425781 12.542969 39.425781 C 12.363281 38.75 12.457031 38.367188 12.800781 37.761719 C 13.28125 37.394531 13.632812 37.328125 14.230469 37.332031 Z M 14.230469 37.332031 "/>
<path style=" stroke:none;fill-rule:nonzero;fill:rgb(26.274511%,72.941178%,36.470589%);fill-opacity:1;" d="M 13.824219 37.503906 C 14.832031 37.492188 15.84375 37.484375 16.851562 37.476562 C 17.320312 37.476562 17.789062 37.472656 18.257812 37.464844 C 18.710938 37.460938 19.160156 37.457031 19.613281 37.457031 C 19.871094 37.453125 20.128906 37.449219 20.382812 37.445312 C 20.539062 37.445312 20.695312 37.445312 20.855469 37.445312 C 20.996094 37.445312 21.132812 37.445312 21.273438 37.441406 C 21.714844 37.519531 21.863281 37.675781 22.144531 38.015625 C 22.058594 38.101562 21.976562 38.183594 21.886719 38.273438 C 21.824219 38.144531 21.824219 38.144531 21.761719 38.015625 C 21.246094 37.804688 20.800781 37.726562 20.246094 37.71875 C 20.101562 37.714844 19.960938 37.714844 19.8125 37.710938 C 19.660156 37.710938 19.507812 37.707031 19.347656 37.707031 C 19.191406 37.703125 19.03125 37.703125 18.871094 37.699219 C 18.367188 37.691406 17.863281 37.6875 17.359375 37.679688 C 17.019531 37.675781 16.675781 37.671875 16.335938 37.664062 C 15.496094 37.652344 14.660156 37.640625 13.824219 37.632812 C 13.824219 37.589844 13.824219 37.546875 13.824219 37.503906 Z M 13.824219 37.503906 "/>
<path style=" stroke:none;fill-rule:nonzero;fill:rgb(40.392157%,77.254903%,47.843137%);fill-opacity:1;" d="M 54.785156 36.351562 C 54.910156 36.394531 55.039062 36.4375 55.167969 36.480469 C 54.195312 37.453125 53.226562 38.421875 52.222656 39.425781 C 52.183594 39.296875 52.140625 39.171875 52.097656 39.039062 C 52.179688 39.039062 52.265625 39.039062 52.351562 39.039062 C 52.351562 38.828125 52.351562 38.617188 52.351562 38.398438 C 52.429688 38.382812 52.503906 38.363281 52.585938 38.34375 C 52.808594 38.285156 53.027344 38.21875 53.246094 38.144531 C 53.34375 37.886719 53.34375 37.886719 53.375 37.632812 C 53.503906 37.632812 53.628906 37.632812 53.761719 37.632812 C 53.800781 37.554688 53.839844 37.472656 53.878906 37.390625 C 53.96875 37.214844 54.054688 37.039062 54.144531 36.863281 C 54.269531 36.863281 54.398438 36.863281 54.527344 36.863281 C 54.527344 36.738281 54.527344 36.609375 54.527344 36.480469 C 54.613281 36.4375 54.695312 36.394531 54.785156 36.351562 Z M 54.785156 36.351562 "/>
<path style=" stroke:none;fill-rule:nonzero;fill:rgb(34.901962%,76.078433%,44.313726%);fill-opacity:1;" d="M 56.574219 33.40625 C 56.875 33.6875 56.949219 33.84375 57 34.246094 C 56.960938 34.558594 56.960938 34.558594 56.703125 34.945312 C 56.621094 34.945312 56.535156 34.945312 56.449219 34.945312 C 56.492188 34.523438 56.53125 34.097656 56.574219 33.664062 C 56.363281 33.664062 56.152344 33.664062 55.9375 33.664062 C 55.851562 33.832031 55.765625 34 55.679688 34.175781 C 55.511719 34.132812 55.34375 34.089844 55.167969 34.046875 C 55.167969 34.132812 55.167969 34.21875 55.167969 34.304688 C 55 34.261719 54.832031 34.21875 54.65625 34.175781 C 54.832031 33.984375 54.832031 33.984375 55.039062 33.792969 C 55.125 33.792969 55.207031 33.792969 55.296875 33.792969 C 55.296875 33.707031 55.296875 33.621094 55.296875 33.535156 C 55.753906 33.238281 56.058594 33.253906 56.574219 33.40625 Z M 56.574219 33.40625 "/>
<path style=" stroke:none;fill-rule:nonzero;fill:rgb(32.549021%,79.215688%,42.745098%);fill-opacity:1;" d="M 45.824219 30.207031 C 45.910156 30.25 45.992188 30.292969 46.078125 30.335938 C 45.902344 30.527344 45.902344 30.527344 45.695312 30.71875 C 45.613281 30.71875 45.527344 30.71875 45.441406 30.71875 C 45.398438 30.929688 45.355469 31.140625 45.3125 31.359375 C 45.226562 31.359375 45.144531 31.359375 45.054688 31.359375 C 45.015625 31.570312 44.972656 31.78125 44.929688 32 C 44.757812 31.957031 44.589844 31.914062 44.414062 31.871094 C 44.414062 31.957031 44.414062 32.039062 44.414062 32.128906 C 44.164062 32.171875 43.910156 32.210938 43.648438 32.257812 C 43.824219 32 43.824219 32 44.03125 31.742188 C 44.117188 31.742188 44.199219 31.742188 44.289062 31.742188 C 44.289062 31.660156 44.289062 31.574219 44.289062 31.488281 C 44.511719 31.285156 44.746094 31.09375 44.984375 30.902344 C 45.113281 30.800781 45.242188 30.699219 45.375 30.589844 C 45.480469 30.507812 45.585938 30.421875 45.695312 30.335938 C 45.738281 30.292969 45.78125 30.25 45.824219 30.207031 Z M 45.824219 30.207031 "/>
<path style=" stroke:none;fill-rule:nonzero;fill:rgb(32.941177%,76.862746%,41.960785%);fill-opacity:1;" d="M 22.015625 31.230469 C 22.273438 31.488281 22.273438 31.488281 22.304688 31.75 C 22.304688 31.851562 22.304688 31.953125 22.304688 32.054688 C 22.304688 32.15625 22.304688 32.257812 22.304688 32.359375 C 22.273438 32.640625 22.273438 32.640625 22.015625 33.023438 C 21.929688 33.023438 21.847656 33.023438 21.761719 33.023438 C 21.761719 33.109375 21.761719 33.191406 21.761719 33.28125 C 21.546875 33.320312 21.335938 33.363281 21.121094 33.40625 C 21.121094 33.28125 21.121094 33.15625 21.121094 33.023438 C 21.246094 33.023438 21.375 33.023438 21.503906 33.023438 C 21.417969 32.855469 21.335938 32.6875 21.246094 32.511719 C 21.332031 32.511719 21.417969 32.511719 21.503906 32.511719 C 21.503906 32.425781 21.503906 32.34375 21.503906 32.257812 C 21.671875 32.257812 21.84375 32.257812 22.015625 32.257812 C 22.015625 31.917969 22.015625 31.582031 22.015625 31.230469 Z M 22.015625 31.230469 "/>
<path style=" stroke:none;fill-rule:nonzero;fill:rgb(46.27451%,80.784315%,53.333336%);fill-opacity:1;" d="M 54.785156 25.601562 C 54.910156 25.683594 55.039062 25.769531 55.167969 25.855469 C 54.429688 26.539062 53.683594 27.191406 52.863281 27.777344 C 52.949219 27.523438 53.03125 27.269531 53.121094 27.007812 C 53.246094 27.007812 53.375 27.007812 53.503906 27.007812 C 53.507812 26.910156 53.507812 26.8125 53.511719 26.710938 C 53.632812 26.367188 53.632812 26.367188 54.070312 26.144531 C 54.222656 26.089844 54.371094 26.039062 54.527344 25.984375 C 54.613281 25.941406 54.695312 25.898438 54.785156 25.855469 C 54.785156 25.773438 54.785156 25.6875 54.785156 25.601562 Z M 54.785156 25.601562 "/>
<path style=" stroke:none;fill-rule:nonzero;fill:rgb(45.490196%,80.784315%,49.803922%);fill-opacity:1;" d="M 60.160156 38.785156 C 60.203125 38.785156 60.246094 38.785156 60.289062 38.785156 C 60.53125 42.882812 60.53125 42.882812 60.03125 43.777344 C 59.949219 43.648438 59.863281 43.523438 59.777344 43.390625 C 59.964844 43.328125 59.964844 43.328125 60.160156 43.265625 C 60.160156 41.785156 60.160156 40.308594 60.160156 38.785156 Z M 60.160156 38.785156 "/>
<path style=" stroke:none;fill-rule:nonzero;fill:rgb(39.607844%,78.039217%,47.450981%);fill-opacity:1;" d="M 52.609375 33.40625 C 52.855469 33.640625 52.855469 33.640625 52.992188 33.921875 C 52.953125 34.207031 52.953125 34.207031 52.863281 34.433594 C 52.78125 34.390625 52.695312 34.347656 52.609375 34.304688 C 52.554688 34.144531 52.554688 34.144531 52.503906 33.984375 C 52.453125 33.878906 52.402344 33.773438 52.351562 33.664062 C 52.027344 33.550781 52.027344 33.550781 51.710938 33.535156 C 51.667969 33.664062 51.628906 33.789062 51.585938 33.921875 C 51.351562 34.207031 51.351562 34.207031 51.070312 34.433594 C 50.796875 34.382812 50.796875 34.382812 50.558594 34.304688 C 50.726562 34.15625 50.890625 34.011719 51.054688 33.863281 C 51.195312 33.742188 51.195312 33.742188 51.335938 33.617188 C 51.789062 33.234375 52.035156 33.257812 52.609375 33.40625 Z M 52.609375 33.40625 "/>
<path style=" stroke:none;fill-rule:nonzero;fill:rgb(33.333334%,77.254903%,43.137255%);fill-opacity:1;" d="M 54.527344 34.304688 C 54.570312 34.429688 54.613281 34.558594 54.65625 34.6875 C 54.425781 35.03125 54.425781 35.03125 54.144531 35.328125 C 54.058594 35.328125 53.976562 35.328125 53.886719 35.328125 C 53.929688 35.453125 53.972656 35.582031 54.015625 35.710938 C 53.351562 36.125 53.351562 36.125 53.121094 36.222656 C 52.992188 36.183594 52.867188 36.140625 52.734375 36.097656 C 53.328125 35.503906 53.917969 34.914062 54.527344 34.304688 Z M 54.527344 34.304688 "/>
<path style=" stroke:none;fill-rule:nonzero;fill:rgb(37.254903%,78.431374%,46.27451%);fill-opacity:1;" d="M 36.480469 32.128906 C 36.9375 32.101562 37.253906 32.113281 37.632812 32.382812 C 37.726562 32.65625 37.726562 32.65625 37.761719 32.894531 C 37.929688 32.9375 38.097656 32.980469 38.273438 33.023438 C 38.3125 33.191406 38.355469 33.363281 38.398438 33.535156 C 38.273438 33.597656 38.273438 33.597656 38.144531 33.664062 C 37.953125 33.519531 37.757812 33.375 37.566406 33.230469 C 37.460938 33.152344 37.355469 33.070312 37.242188 32.988281 C 37.160156 32.917969 37.078125 32.84375 36.992188 32.769531 C 36.992188 32.683594 36.992188 32.597656 36.992188 32.511719 C 36.824219 32.425781 36.652344 32.34375 36.480469 32.257812 C 36.480469 32.214844 36.480469 32.171875 36.480469 32.128906 Z M 36.480469 32.128906 "/>
<path style=" stroke:none;fill-rule:nonzero;fill:rgb(26.666668%,77.254903%,36.862746%);fill-opacity:1;" d="M 8.289062 30.824219 C 8.378906 30.824219 8.464844 30.828125 8.558594 30.828125 C 8.777344 30.832031 8.996094 30.839844 9.214844 30.847656 C 9.171875 30.933594 9.132812 31.015625 9.089844 31.105469 C 8.992188 31.101562 8.898438 31.097656 8.800781 31.097656 C 8.476562 31.101562 8.242188 31.140625 7.9375 31.230469 C 7.746094 31.285156 7.746094 31.285156 7.550781 31.335938 C 7.144531 31.496094 6.941406 31.671875 6.65625 32 C 6.71875 31.304688 6.71875 31.304688 6.984375 31.015625 C 7.414062 30.785156 7.8125 30.804688 8.289062 30.824219 Z M 8.289062 30.824219 "/>
<path style=" stroke:none;fill-rule:nonzero;fill:rgb(41.176471%,78.039217%,48.235294%);fill-opacity:1;" d="M 35.585938 27.902344 C 36.0625 28.210938 36.523438 28.535156 36.976562 28.878906 C 37.074219 28.957031 37.175781 29.03125 37.277344 29.109375 C 37.390625 29.210938 37.390625 29.210938 37.503906 29.3125 C 37.503906 29.394531 37.503906 29.480469 37.503906 29.566406 C 37.125 29.503906 37.125 29.503906 36.734375 29.441406 C 36.734375 29.398438 36.734375 29.355469 36.734375 29.3125 C 36.484375 29.226562 36.230469 29.144531 35.96875 29.054688 C 35.96875 28.800781 35.96875 28.550781 35.96875 28.289062 C 35.839844 28.246094 35.714844 28.203125 35.585938 28.160156 C 35.585938 28.074219 35.585938 27.992188 35.585938 27.902344 Z M 35.585938 27.902344 "/>
<path style=" stroke:none;fill-rule:nonzero;fill:rgb(37.254903%,76.47059%,46.666667%);fill-opacity:1;" d="M 40.703125 35.710938 C 41.429688 35.792969 41.429688 35.792969 41.652344 36.039062 C 41.847656 36.253906 41.847656 36.253906 42.144531 36.234375 C 42.246094 36.21875 42.351562 36.199219 42.457031 36.183594 C 42.609375 36.160156 42.609375 36.160156 42.769531 36.136719 C 42.847656 36.125 42.925781 36.109375 43.007812 36.097656 C 43.007812 36.011719 43.007812 35.925781 43.007812 35.839844 C 43.132812 35.882812 43.261719 35.925781 43.390625 35.96875 C 42.800781 36.449219 42.507812 36.683594 41.726562 36.609375 C 41.261719 36.347656 41.003906 36.160156 40.703125 35.710938 Z M 40.703125 35.710938 "/>
<path style=" stroke:none;fill-rule:nonzero;fill:rgb(32.549021%,78.039217%,42.352942%);fill-opacity:1;" d="M 48 28.542969 C 47.847656 28.980469 47.707031 29.265625 47.359375 29.566406 C 47.082031 29.828125 47.082031 29.828125 46.847656 30.207031 C 46.847656 30.082031 46.847656 29.953125 46.847656 29.824219 C 46.636719 29.910156 46.425781 29.992188 46.207031 30.078125 C 47.457031 28.542969 47.457031 28.542969 48 28.542969 Z M 48 28.542969 "/>
<path style=" stroke:none;fill-rule:nonzero;fill:rgb(43.921569%,78.039217%,51.372552%);fill-opacity:1;" d="M 3.839844 24.0625 C 3.671875 24.105469 3.503906 24.148438 3.328125 24.191406 C 3.328125 24.320312 3.328125 24.445312 3.328125 24.574219 C 3.203125 24.574219 3.074219 24.574219 2.945312 24.574219 C 2.957031 24.761719 2.976562 24.949219 2.992188 25.136719 C 3 25.238281 3.011719 25.34375 3.019531 25.449219 C 3.109375 25.914062 3.476562 26.101562 3.839844 26.367188 C 3.617188 26.464844 3.617188 26.464844 3.328125 26.496094 C 2.992188 26.285156 2.847656 26.097656 2.742188 25.714844 C 2.667969 25.230469 2.652344 24.917969 2.839844 24.457031 C 3.144531 24.109375 3.390625 23.839844 3.839844 24.0625 Z M 3.839844 24.0625 "/>
<path style=" stroke:none;fill-rule:nonzero;fill:rgb(42.352942%,77.254903%,48.627451%);fill-opacity:1;" d="M 49.664062 39.679688 C 49.832031 39.722656 50 39.765625 50.175781 39.808594 C 50.175781 39.890625 50.175781 39.976562 50.175781 40.0625 C 50.554688 40.0625 50.9375 40.0625 51.328125 40.0625 C 51.328125 39.980469 51.328125 39.894531 51.328125 39.808594 C 51.496094 39.765625 51.664062 39.722656 51.839844 39.679688 C 51.839844 39.765625 51.839844 39.847656 51.839844 39.9375 C 51.753906 39.9375 51.671875 39.9375 51.585938 39.9375 C 51.585938 40.019531 51.585938 40.105469 51.585938 40.191406 C 51.375 40.40625 51.375 40.40625 51.070312 40.574219 C 50.65625 40.535156 50.65625 40.535156 50.304688 40.449219 C 50.304688 40.363281 50.304688 40.277344 50.304688 40.191406 C 50.21875 40.191406 50.136719 40.191406 50.046875 40.191406 C 50.046875 40.109375 50.046875 40.023438 50.046875 39.9375 C 49.921875 39.894531 49.792969 39.851562 49.664062 39.808594 C 49.664062 39.765625 49.664062 39.722656 49.664062 39.679688 Z M 49.664062 39.679688 "/>
<path style=" stroke:none;fill-rule:nonzero;fill:rgb(34.901962%,80.784315%,44.313726%);fill-opacity:1;" d="M 36.222656 30.71875 C 36.308594 30.804688 36.394531 30.890625 36.480469 30.976562 C 36.433594 31.246094 36.433594 31.246094 36.351562 31.488281 C 36.4375 31.53125 36.519531 31.574219 36.609375 31.617188 C 36.566406 31.785156 36.523438 31.953125 36.480469 32.128906 C 36.027344 31.882812 35.738281 31.664062 35.457031 31.230469 C 35.625 31.230469 35.792969 31.230469 35.96875 31.230469 C 35.96875 31.148438 35.96875 31.0625 35.96875 30.976562 C 36.050781 30.976562 36.136719 30.976562 36.222656 30.976562 C 36.222656 30.890625 36.222656 30.808594 36.222656 30.71875 Z M 36.222656 30.71875 "/>
<path style=" stroke:none;fill-rule:nonzero;fill:rgb(38.82353%,77.64706%,47.843137%);fill-opacity:1;" d="M 45.078125 34.222656 C 45.195312 34.261719 45.195312 34.261719 45.3125 34.304688 C 45.136719 34.496094 45.136719 34.496094 44.929688 34.6875 C 44.84375 34.6875 44.757812 34.6875 44.671875 34.6875 C 44.628906 34.800781 44.628906 34.800781 44.585938 34.910156 C 44.371094 35.277344 44.121094 35.472656 43.777344 35.710938 C 43.691406 35.710938 43.605469 35.710938 43.519531 35.710938 C 43.5625 35.585938 43.605469 35.457031 43.648438 35.328125 C 43.734375 35.328125 43.816406 35.328125 43.902344 35.328125 C 43.902344 35.242188 43.902344 35.160156 43.902344 35.070312 C 44.03125 35.070312 44.15625 35.070312 44.289062 35.070312 C 44.308594 34.921875 44.308594 34.921875 44.328125 34.769531 C 44.441406 34.332031 44.613281 34.144531 45.078125 34.222656 Z M 45.078125 34.222656 "/>
<path style=" stroke:none;fill-rule:nonzero;fill:rgb(38.431373%,78.823531%,47.058824%);fill-opacity:1;" d="M 30.335938 26.878906 C 30.503906 26.878906 30.675781 26.878906 30.847656 26.878906 C 30.847656 26.964844 30.847656 27.050781 30.847656 27.136719 C 31.015625 27.09375 31.1875 27.050781 31.359375 27.007812 C 31.359375 27.132812 31.359375 27.261719 31.359375 27.390625 C 31.488281 27.433594 31.613281 27.476562 31.742188 27.519531 C 31.742188 27.605469 31.742188 27.6875 31.742188 27.777344 C 31.828125 27.816406 31.914062 27.859375 32 27.902344 C 31.957031 28.03125 31.914062 28.15625 31.871094 28.289062 C 31.617188 28.078125 31.359375 27.867188 31.105469 27.65625 C 31.03125 27.597656 30.957031 27.535156 30.882812 27.472656 C 30.699219 27.320312 30.515625 27.164062 30.335938 27.007812 C 30.335938 26.964844 30.335938 26.921875 30.335938 26.878906 Z M 30.335938 26.878906 "/>
<path style=" stroke:none;fill-rule:nonzero;fill:rgb(33.725491%,78.431374%,42.352942%);fill-opacity:1;" d="M 49.40625 38.144531 C 49.492188 38.1875 49.578125 38.226562 49.664062 38.273438 C 49.734375 38.511719 49.734375 38.511719 49.792969 38.785156 C 49.835938 38.910156 49.875 39.039062 49.921875 39.167969 C 49.835938 39.167969 49.75 39.167969 49.664062 39.167969 C 49.621094 39.335938 49.578125 39.507812 49.535156 39.679688 C 49.246094 39.363281 49.15625 39.203125 49.113281 38.769531 C 49.152344 38.398438 49.152344 38.398438 49.40625 38.144531 Z M 49.40625 38.144531 "/>
<path style=" stroke:none;fill-rule:nonzero;fill:rgb(25.882354%,68.235296%,35.294119%);fill-opacity:1;" d="M 50.558594 37.761719 C 50.601562 37.84375 50.644531 37.929688 50.6875 38.015625 C 50.550781 38.03125 50.414062 38.046875 50.273438 38.0625 C 49.8125 38.117188 49.8125 38.117188 49.503906 38.289062 C 49.429688 38.324219 49.355469 38.363281 49.28125 38.398438 C 49.152344 38.359375 49.027344 38.316406 48.894531 38.273438 C 49.066406 38.1875 49.234375 38.101562 49.40625 38.015625 C 49.367188 37.890625 49.324219 37.761719 49.28125 37.632812 C 49.789062 37.460938 50.0625 37.585938 50.558594 37.761719 Z M 50.558594 37.761719 "/>
<path style=" stroke:none;fill-rule:nonzero;fill:rgb(35.686275%,78.039217%,42.745098%);fill-opacity:1;" d="M 55.167969 22.015625 C 55.296875 22.273438 55.296875 22.273438 55.222656 22.585938 C 54.980469 23.019531 54.730469 23.113281 54.273438 23.296875 C 54.101562 23.339844 53.929688 23.382812 53.761719 23.425781 C 54.191406 22.894531 54.613281 22.425781 55.167969 22.015625 Z M 55.167969 22.015625 "/>
<path style=" stroke:none;fill-rule:nonzero;fill:rgb(42.352942%,79.607844%,49.019608%);fill-opacity:1;" d="M 48.511719 36.222656 C 48.597656 36.265625 48.679688 36.308594 48.769531 36.351562 C 48.726562 36.4375 48.683594 36.519531 48.640625 36.609375 C 48.554688 36.609375 48.472656 36.609375 48.382812 36.609375 C 48.382812 36.820312 48.382812 37.03125 48.382812 37.246094 C 47.519531 37.761719 47.519531 37.761719 47.230469 37.761719 C 47.230469 37.675781 47.230469 37.589844 47.230469 37.503906 C 47.316406 37.503906 47.402344 37.503906 47.488281 37.503906 C 47.488281 37.417969 47.488281 37.335938 47.488281 37.246094 C 47.574219 37.246094 47.65625 37.246094 47.742188 37.246094 C 47.742188 37.164062 47.742188 37.078125 47.742188 36.992188 C 47.828125 36.992188 47.914062 36.992188 48 36.992188 C 48 36.90625 48 36.824219 48 36.734375 C 48.085938 36.734375 48.167969 36.734375 48.257812 36.734375 C 48.257812 36.652344 48.257812 36.566406 48.257812 36.480469 C 48.339844 36.480469 48.425781 36.480469 48.511719 36.480469 C 48.511719 36.394531 48.511719 36.3125 48.511719 36.222656 Z M 48.511719 36.222656 "/>
<path style=" stroke:none;fill-rule:nonzero;fill:rgb(21.960784%,78.431374%,33.725491%);fill-opacity:1;" d="M 49.792969 38.015625 C 50.214844 38.015625 50.636719 38.015625 51.070312 38.015625 C 51.03125 38.226562 50.988281 38.4375 50.945312 38.65625 C 50.558594 38.65625 50.558594 38.65625 50.296875 38.585938 C 50.039062 38.5 50.039062 38.5 49.792969 38.65625 C 49.792969 38.445312 49.792969 38.234375 49.792969 38.015625 Z M 49.792969 38.015625 "/>
<path style=" stroke:none;fill-rule:nonzero;fill:rgb(35.686275%,79.215688%,45.09804%);fill-opacity:1;" d="M 31.488281 24.320312 C 31.660156 24.4375 31.832031 24.558594 32 24.679688 C 32.140625 24.78125 32.140625 24.78125 32.289062 24.882812 C 32.398438 24.984375 32.398438 24.984375 32.511719 25.089844 C 32.511719 25.214844 32.511719 25.339844 32.511719 25.472656 C 32.386719 25.515625 32.257812 25.554688 32.128906 25.601562 C 31.871094 25.367188 31.871094 25.367188 31.617188 25.089844 C 31.617188 24.960938 31.617188 24.835938 31.617188 24.703125 C 31.53125 24.660156 31.445312 24.621094 31.359375 24.574219 C 31.402344 24.492188 31.445312 24.40625 31.488281 24.320312 Z M 31.488281 24.320312 "/>
<path style=" stroke:none;fill-rule:nonzero;fill:rgb(32.156864%,76.078433%,40.784314%);fill-opacity:1;" d="M 24.574219 19.457031 C 24.847656 19.574219 24.847656 19.574219 25.089844 19.710938 C 24.941406 19.789062 24.941406 19.789062 24.792969 19.863281 C 24.414062 20.117188 24.277344 20.34375 24.0625 20.734375 C 24.023438 20.734375 23.980469 20.734375 23.9375 20.734375 C 23.890625 20.03125 23.890625 20.03125 24.113281 19.734375 C 24.320312 19.585938 24.320312 19.585938 24.574219 19.457031 Z M 24.574219 19.457031 "/>
<path style=" stroke:none;fill-rule:nonzero;fill:rgb(38.431373%,71.764708%,44.313726%);fill-opacity:1;" d="M 18.558594 23.9375 C 19.015625 23.925781 19.472656 23.917969 19.929688 23.910156 C 20.058594 23.910156 20.1875 23.90625 20.320312 23.902344 C 21.539062 23.890625 21.539062 23.890625 22.015625 24.320312 C 22.015625 24.40625 22.015625 24.488281 22.015625 24.574219 C 21.890625 24.574219 21.761719 24.574219 21.632812 24.574219 C 21.574219 24.515625 21.515625 24.453125 21.457031 24.386719 C 21.175781 24.125 21 24.136719 20.621094 24.125 C 20.503906 24.121094 20.382812 24.117188 20.257812 24.113281 C 20.132812 24.109375 20.007812 24.105469 19.878906 24.105469 C 19.753906 24.101562 19.628906 24.09375 19.496094 24.089844 C 19.183594 24.082031 18.871094 24.070312 18.558594 24.0625 C 18.558594 24.023438 18.558594 23.980469 18.558594 23.9375 Z M 18.558594 23.9375 "/>
<path style=" stroke:none;fill-rule:nonzero;fill:rgb(30.588236%,75.686276%,38.82353%);fill-opacity:1;" d="M 54.910156 41.472656 C 55.800781 41.472656 56.6875 41.472656 57.601562 41.472656 C 57.515625 41.554688 57.429688 41.640625 57.34375 41.726562 C 57.066406 41.726562 57.066406 41.726562 56.753906 41.679688 C 56.648438 41.664062 56.542969 41.652344 56.433594 41.636719 C 56.355469 41.625 56.273438 41.613281 56.191406 41.601562 C 56.191406 41.683594 56.191406 41.769531 56.191406 41.855469 C 55.769531 41.8125 55.347656 41.773438 54.910156 41.726562 C 54.910156 41.644531 54.910156 41.558594 54.910156 41.472656 Z M 54.910156 41.472656 "/>
<path style=" stroke:none;fill-rule:nonzero;fill:rgb(34.901962%,78.431374%,44.705883%);fill-opacity:1;" d="M 49.664062 35.199219 C 49.753906 35.425781 49.753906 35.425781 49.792969 35.710938 C 49.625 36 49.625 36 49.40625 36.222656 C 49.324219 36.222656 49.238281 36.222656 49.152344 36.222656 C 49.152344 36.308594 49.152344 36.394531 49.152344 36.480469 C 49.066406 36.480469 48.984375 36.480469 48.894531 36.480469 C 48.855469 36.3125 48.8125 36.140625 48.769531 35.96875 C 48.851562 35.96875 48.9375 35.96875 49.023438 35.96875 C 49.023438 35.882812 49.023438 35.800781 49.023438 35.710938 C 49.230469 35.535156 49.445312 35.363281 49.664062 35.199219 Z M 49.664062 35.199219 "/>
<path style=" stroke:none;fill-rule:nonzero;fill:rgb(44.705883%,81.960785%,52.156866%);fill-opacity:1;" d="M 52.097656 24.832031 C 52.136719 25.121094 52.136719 25.121094 52.097656 25.472656 C 51.667969 25.925781 51.304688 26.054688 50.6875 26.113281 C 50.902344 25.898438 51.113281 25.683594 51.328125 25.472656 C 51.445312 25.351562 51.558594 25.234375 51.679688 25.113281 C 51.96875 24.832031 51.96875 24.832031 52.097656 24.832031 Z M 52.097656 24.832031 "/>
<path style=" stroke:none;fill-rule:nonzero;fill:rgb(36.862746%,75.686276%,45.490196%);fill-opacity:1;" d="M 23.9375 42.753906 C 24.222656 43.097656 24.433594 43.347656 24.574219 43.777344 C 24.957031 43.839844 24.957031 43.839844 25.34375 43.902344 C 25.042969 44.085938 24.898438 44.171875 24.542969 44.113281 C 24.46875 44.085938 24.394531 44.058594 24.320312 44.03125 C 24.320312 43.949219 24.320312 43.863281 24.320312 43.777344 C 24.234375 43.777344 24.152344 43.777344 24.0625 43.777344 C 23.890625 43.429688 23.925781 43.136719 23.9375 42.753906 Z M 23.9375 42.753906 "/>
<path style=" stroke:none;fill-rule:nonzero;fill:rgb(40.784314%,75.686276%,48.235294%);fill-opacity:1;" d="M 22.144531 38.144531 C 22.1875 38.144531 22.226562 38.144531 22.273438 38.144531 C 22.316406 38.726562 22.347656 39.160156 22.054688 39.679688 C 21.734375 39.960938 21.539062 40.027344 21.121094 40.0625 C 21.121094 39.980469 21.121094 39.894531 21.121094 39.808594 C 21.503906 39.550781 21.503906 39.550781 21.886719 39.550781 C 21.972656 39.085938 22.058594 38.621094 22.144531 38.144531 Z M 22.144531 38.144531 "/>
<path style=" stroke:none;fill-rule:nonzero;fill:rgb(47.843137%,81.568629%,54.901963%);fill-opacity:1;" d="M 54.785156 36.351562 C 54.910156 36.394531 55.039062 36.4375 55.167969 36.480469 C 54.746094 36.902344 54.324219 37.324219 53.886719 37.761719 C 53.847656 37.632812 53.804688 37.507812 53.761719 37.375 C 53.921875 37.097656 53.921875 37.097656 54.144531 36.863281 C 54.269531 36.863281 54.398438 36.863281 54.527344 36.863281 C 54.527344 36.738281 54.527344 36.609375 54.527344 36.480469 C 54.613281 36.4375 54.695312 36.394531 54.785156 36.351562 Z M 54.785156 36.351562 "/>
<path style=" stroke:none;fill-rule:nonzero;fill:rgb(35.686275%,77.64706%,44.313726%);fill-opacity:1;" d="M 55.679688 35.070312 C 55.933594 35.070312 56.1875 35.070312 56.449219 35.070312 C 56.320312 35.261719 56.320312 35.261719 56.191406 35.457031 C 56.109375 35.457031 56.023438 35.457031 55.9375 35.457031 C 55.9375 35.539062 55.9375 35.625 55.9375 35.710938 C 55.851562 35.710938 55.765625 35.710938 55.679688 35.710938 C 55.679688 35.796875 55.679688 35.882812 55.679688 35.96875 C 55.59375 35.96875 55.511719 35.96875 55.425781 35.96875 C 55.382812 36.050781 55.339844 36.136719 55.296875 36.222656 C 55.296875 35.96875 55.296875 35.71875 55.296875 35.457031 C 55.378906 35.457031 55.464844 35.457031 55.550781 35.457031 C 55.59375 35.328125 55.636719 35.203125 55.679688 35.070312 Z M 55.679688 35.070312 "/>
<path style=" stroke:none;fill-rule:nonzero;fill:rgb(38.431373%,74.901962%,44.705883%);fill-opacity:1;" d="M 33.40625 25.984375 C 33.667969 26.148438 33.925781 26.316406 34.175781 26.496094 C 34.175781 26.582031 34.175781 26.664062 34.175781 26.753906 C 34.253906 26.785156 34.335938 26.820312 34.414062 26.855469 C 34.6875 27.007812 34.6875 27.007812 34.945312 27.390625 C 34.816406 27.390625 34.691406 27.390625 34.558594 27.390625 C 34.53125 27.3125 34.5 27.234375 34.472656 27.152344 C 34.324219 26.851562 34.324219 26.851562 33.984375 26.761719 C 33.664062 26.625 33.664062 26.625 33.496094 26.289062 C 33.46875 26.1875 33.4375 26.085938 33.40625 25.984375 Z M 33.40625 25.984375 "/>
<path style=" stroke:none;fill-rule:nonzero;fill:rgb(41.568628%,80.392158%,49.803922%);fill-opacity:1;" d="M 50.558594 26.113281 C 50.601562 26.238281 50.644531 26.367188 50.6875 26.496094 C 50.28125 26.949219 50.027344 27.210938 49.40625 27.265625 C 49.585938 27.007812 49.585938 27.007812 49.792969 26.753906 C 49.875 26.753906 49.960938 26.753906 50.046875 26.753906 C 50.046875 26.667969 50.046875 26.582031 50.046875 26.496094 C 50.132812 26.496094 50.21875 26.496094 50.304688 26.496094 C 50.304688 26.410156 50.304688 26.328125 50.304688 26.238281 C 50.386719 26.199219 50.472656 26.15625 50.558594 26.113281 Z M 50.558594 26.113281 "/>
<path style=" stroke:none;fill-rule:nonzero;fill:rgb(38.039216%,73.333335%,45.09804%);fill-opacity:1;" d="M 22.144531 24.703125 C 22.1875 24.703125 22.226562 24.703125 22.273438 24.703125 C 22.332031 25.328125 22.367188 25.722656 21.992188 26.246094 C 21.609375 26.511719 21.445312 26.5625 20.992188 26.496094 C 20.992188 26.410156 20.992188 26.328125 20.992188 26.238281 C 21.433594 26.175781 21.433594 26.175781 21.886719 26.113281 C 21.886719 25.941406 21.886719 25.773438 21.886719 25.601562 C 21.972656 25.601562 22.058594 25.601562 22.144531 25.601562 C 22.144531 25.304688 22.144531 25.007812 22.144531 24.703125 Z M 22.144531 24.703125 "/>
<path style=" stroke:none;fill-rule:nonzero;fill:rgb(41.568628%,78.823531%,49.019608%);fill-opacity:1;" d="M 53.375 23.550781 C 53.503906 23.59375 53.628906 23.636719 53.761719 23.679688 C 53.71875 23.808594 53.675781 23.933594 53.632812 24.0625 C 53.503906 24.0625 53.378906 24.0625 53.246094 24.0625 C 53.164062 24.234375 53.078125 24.402344 52.992188 24.574219 C 52.824219 24.535156 52.652344 24.492188 52.480469 24.449219 C 52.6875 24.230469 52.902344 24.015625 53.121094 23.808594 C 53.203125 23.808594 53.289062 23.808594 53.375 23.808594 C 53.375 23.722656 53.375 23.640625 53.375 23.550781 Z M 53.375 23.550781 "/>
<path style=" stroke:none;fill-rule:nonzero;fill:rgb(40.784314%,76.078433%,47.058824%);fill-opacity:1;" d="M 40.574219 32.128906 C 41.175781 32.5625 41.730469 32.996094 42.238281 33.535156 C 41.429688 33.363281 41.066406 33.039062 40.574219 32.382812 C 40.574219 32.300781 40.574219 32.214844 40.574219 32.128906 Z M 40.574219 32.128906 "/>
<path style=" stroke:none;fill-rule:nonzero;fill:rgb(45.882353%,79.607844%,51.764709%);fill-opacity:1;" d="M 49.28125 27.265625 C 49.320312 27.347656 49.363281 27.433594 49.40625 27.519531 C 49.367188 27.605469 49.324219 27.6875 49.28125 27.777344 C 49.152344 27.777344 49.027344 27.777344 48.894531 27.777344 C 48.855469 27.945312 48.8125 28.113281 48.769531 28.289062 C 48.515625 28.332031 48.261719 28.371094 48 28.414062 C 48.40625 28 48.820312 27.621094 49.28125 27.265625 Z M 49.28125 27.265625 "/>
<path style=" stroke:none;fill-rule:nonzero;fill:rgb(35.294119%,76.078433%,42.745098%);fill-opacity:1;" d="M 51.839844 36.992188 C 51.882812 37.078125 51.925781 37.160156 51.96875 37.246094 C 51.503906 37.984375 51.503906 37.984375 51.070312 38.273438 C 51.03125 38.144531 50.988281 38.019531 50.945312 37.886719 C 51.238281 37.59375 51.535156 37.296875 51.839844 36.992188 Z M 51.839844 36.992188 "/>
<path style=" stroke:none;fill-rule:nonzero;fill:rgb(39.607844%,77.64706%,48.235294%);fill-opacity:1;" d="M 54.527344 34.304688 C 54.570312 34.429688 54.613281 34.558594 54.65625 34.6875 C 54.40625 35.09375 54.257812 35.296875 53.792969 35.433594 C 53.695312 35.441406 53.601562 35.449219 53.503906 35.457031 C 53.625 35.3125 53.75 35.167969 53.871094 35.023438 C 53.941406 34.945312 54.007812 34.863281 54.078125 34.78125 C 54.222656 34.617188 54.375 34.457031 54.527344 34.304688 Z M 54.527344 34.304688 "/>
<path style=" stroke:none;fill-rule:nonzero;fill:rgb(40.784314%,78.039217%,48.235294%);fill-opacity:1;" d="M 38.273438 33.664062 C 38.785156 33.664062 38.785156 33.664062 38.984375 33.847656 C 39.042969 33.914062 39.105469 33.980469 39.167969 34.046875 C 39.292969 34.089844 39.421875 34.132812 39.550781 34.175781 C 39.550781 34.34375 39.550781 34.515625 39.550781 34.6875 C 39.234375 34.535156 38.953125 34.375 38.65625 34.175781 C 38.65625 34.089844 38.65625 34.007812 38.65625 33.921875 C 38.527344 33.878906 38.402344 33.835938 38.273438 33.792969 C 38.273438 33.75 38.273438 33.707031 38.273438 33.664062 Z M 38.273438 33.664062 "/>
<path style=" stroke:none;fill-rule:nonzero;fill:rgb(41.176471%,80.392158%,49.019608%);fill-opacity:1;" d="M 53.632812 26.367188 C 53.886719 26.753906 53.886719 26.753906 53.886719 27.007812 C 53.664062 27.199219 53.664062 27.199219 53.375 27.40625 C 53.28125 27.476562 53.1875 27.546875 53.089844 27.617188 C 53.015625 27.667969 52.941406 27.722656 52.863281 27.777344 C 52.949219 27.523438 53.03125 27.269531 53.121094 27.007812 C 53.246094 27.007812 53.375 27.007812 53.503906 27.007812 C 53.546875 26.796875 53.589844 26.585938 53.632812 26.367188 Z M 53.632812 26.367188 "/>
<path style=" stroke:none;fill-rule:nonzero;fill:rgb(33.333334%,78.039217%,44.313726%);fill-opacity:1;" d="M 50.816406 34.433594 C 50.652344 34.800781 50.476562 35.054688 50.175781 35.328125 C 50.050781 35.242188 49.921875 35.160156 49.792969 35.070312 C 50.382812 34.433594 50.382812 34.433594 50.816406 34.433594 Z M 50.816406 34.433594 "/>
<path style=" stroke:none;fill-rule:nonzero;fill:rgb(39.215687%,78.039217%,47.450981%);fill-opacity:1;" d="M 30.207031 23.296875 C 30.292969 23.296875 30.378906 23.296875 30.464844 23.296875 C 30.464844 23.378906 30.464844 23.464844 30.464844 23.550781 C 30.539062 23.589844 30.617188 23.625 30.695312 23.664062 C 30.976562 23.808594 30.976562 23.808594 31.359375 24.0625 C 31.316406 24.148438 31.277344 24.234375 31.230469 24.320312 C 30.863281 24.238281 30.863281 24.238281 30.464844 24.0625 C 30.289062 23.664062 30.289062 23.664062 30.207031 23.296875 Z M 30.207031 23.296875 "/>
<path style=" stroke:none;fill-rule:nonzero;fill:rgb(30.588236%,76.47059%,40.392157%);fill-opacity:1;" d="M 48.769531 38.144531 C 48.851562 38.1875 48.9375 38.226562 49.023438 38.273438 C 48.847656 38.675781 48.769531 38.78125 48.382812 39.039062 C 48.300781 38.828125 48.214844 38.617188 48.128906 38.398438 C 48.210938 38.359375 48.296875 38.316406 48.382812 38.273438 C 48.511719 38.3125 48.636719 38.355469 48.769531 38.398438 C 48.769531 38.316406 48.769531 38.230469 48.769531 38.144531 Z M 48.769531 38.144531 "/>
<path style=" stroke:none;fill-rule:nonzero;fill:rgb(22.352941%,81.568629%,34.117648%);fill-opacity:1;" d="M 21.761719 38.65625 C 21.84375 38.65625 21.929688 38.65625 22.015625 38.65625 C 21.972656 38.953125 21.929688 39.246094 21.886719 39.550781 C 21.675781 39.59375 21.464844 39.636719 21.246094 39.679688 C 21.417969 39.339844 21.589844 38.996094 21.761719 38.65625 Z M 21.761719 38.65625 "/>
<path style=" stroke:none;fill-rule:nonzero;fill:rgb(41.176471%,75.294119%,48.627451%);fill-opacity:1;" d="M 12.800781 37.761719 C 12.925781 37.800781 13.054688 37.84375 13.183594 37.886719 C 13.054688 38.273438 13.054688 38.273438 12.800781 38.398438 C 12.742188 38.644531 12.742188 38.644531 12.71875 38.921875 C 12.703125 39.085938 12.6875 39.253906 12.671875 39.425781 C 12.628906 39.425781 12.585938 39.425781 12.542969 39.425781 C 12.355469 38.722656 12.488281 38.382812 12.800781 37.761719 Z M 12.800781 37.761719 "/>
<path style=" stroke:none;fill-rule:nonzero;fill:rgb(42.352942%,78.039217%,49.803922%);fill-opacity:1;" d="M 43.777344 36.222656 C 43.941406 36.214844 44.101562 36.207031 44.273438 36.199219 C 44.410156 36.191406 44.410156 36.191406 44.550781 36.1875 C 44.632812 36.199219 44.714844 36.210938 44.800781 36.222656 C 44.882812 36.351562 44.96875 36.476562 45.054688 36.609375 C 44.84375 36.648438 44.632812 36.691406 44.414062 36.734375 C 44.375 36.652344 44.332031 36.566406 44.289062 36.480469 C 44.078125 36.480469 43.867188 36.480469 43.648438 36.480469 C 43.691406 36.394531 43.734375 36.3125 43.777344 36.222656 Z M 43.777344 36.222656 "/>
<path style=" stroke:none;fill-rule:nonzero;fill:rgb(38.039216%,75.294119%,47.450981%);fill-opacity:1;" d="M 47.230469 32.128906 C 47.359375 32.128906 47.484375 32.128906 47.617188 32.128906 C 47.574219 32.253906 47.53125 32.382812 47.488281 32.511719 C 47.402344 32.511719 47.320312 32.511719 47.230469 32.511719 C 47.230469 32.597656 47.230469 32.679688 47.230469 32.769531 C 46.910156 32.976562 46.910156 32.976562 46.59375 33.152344 C 46.59375 32.984375 46.59375 32.8125 46.59375 32.640625 C 46.71875 32.640625 46.84375 32.640625 46.976562 32.640625 C 46.976562 32.554688 46.976562 32.472656 46.976562 32.382812 C 47.058594 32.382812 47.144531 32.382812 47.230469 32.382812 C 47.230469 32.300781 47.230469 32.214844 47.230469 32.128906 Z M 47.230469 32.128906 "/>
<path style=" stroke:none;fill-rule:nonzero;fill:rgb(50.980395%,81.568629%,56.078434%);fill-opacity:1;" d="M 45.824219 30.207031 C 45.910156 30.25 45.992188 30.292969 46.078125 30.335938 C 45.902344 30.527344 45.902344 30.527344 45.695312 30.71875 C 45.613281 30.71875 45.527344 30.71875 45.441406 30.71875 C 45.398438 30.890625 45.355469 31.058594 45.3125 31.230469 C 45.101562 31.273438 44.890625 31.316406 44.671875 31.359375 C 45.027344 30.914062 45.34375 30.527344 45.824219 30.207031 Z M 45.824219 30.207031 "/>
<path style=" stroke:none;fill-rule:nonzero;fill:rgb(39.215687%,73.333335%,45.882353%);fill-opacity:1;" d="M 60.160156 41.472656 C 60.203125 41.472656 60.246094 41.472656 60.289062 41.472656 C 60.296875 41.785156 60.304688 42.097656 60.3125 42.40625 C 60.316406 42.539062 60.316406 42.539062 60.320312 42.675781 C 60.332031 43.335938 60.332031 43.335938 60.09375 43.644531 C 60.03125 43.6875 59.96875 43.730469 59.902344 43.777344 C 59.863281 43.648438 59.820312 43.523438 59.777344 43.390625 C 59.902344 43.351562 60.03125 43.308594 60.160156 43.265625 C 60.160156 42.671875 60.160156 42.082031 60.160156 41.472656 Z M 60.160156 41.472656 "/>
<path style=" stroke:none;fill-rule:nonzero;fill:rgb(41.176471%,77.64706%,48.235294%);fill-opacity:1;" d="M 7.296875 30.847656 C 7.339844 30.976562 7.378906 31.101562 7.425781 31.230469 C 7.246094 31.523438 7.015625 31.746094 6.785156 32 C 6.679688 31.785156 6.679688 31.785156 6.65625 31.488281 C 6.96875 31.136719 6.96875 31.136719 7.296875 30.847656 Z M 7.296875 30.847656 "/>
<path style=" stroke:none;fill-rule:nonzero;fill:rgb(32.549021%,76.862746%,42.352942%);fill-opacity:1;" d="M 35.585938 27.902344 C 35.886719 28.039062 35.886719 28.039062 36.222656 28.289062 C 36.390625 28.761719 36.390625 28.761719 36.480469 29.183594 C 36.3125 29.140625 36.140625 29.097656 35.96875 29.054688 C 35.96875 28.800781 35.96875 28.550781 35.96875 28.289062 C 35.839844 28.246094 35.714844 28.203125 35.585938 28.160156 C 35.585938 28.074219 35.585938 27.992188 35.585938 27.902344 Z M 35.585938 27.902344 "/>
<path style=" stroke:none;fill-rule:nonzero;fill:rgb(38.039216%,79.215688%,47.058824%);fill-opacity:1;" d="M 50.6875 36.097656 C 50.855469 36.136719 51.027344 36.179688 51.199219 36.222656 C 51.199219 36.308594 51.199219 36.394531 51.199219 36.480469 C 51.117188 36.480469 51.03125 36.480469 50.945312 36.480469 C 50.945312 36.566406 50.945312 36.648438 50.945312 36.734375 C 50.859375 36.734375 50.773438 36.734375 50.6875 36.734375 C 50.6875 36.820312 50.6875 36.90625 50.6875 36.992188 C 50.605469 36.949219 50.519531 36.90625 50.433594 36.863281 C 50.515625 36.609375 50.601562 36.355469 50.6875 36.097656 Z M 50.6875 36.097656 "/>
<path style=" stroke:none;fill-rule:nonzero;fill:rgb(33.725491%,76.47059%,41.960785%);fill-opacity:1;" d="M 20.609375 30.847656 C 20.792969 30.835938 20.980469 30.832031 21.167969 30.824219 C 21.273438 30.820312 21.375 30.816406 21.484375 30.808594 C 21.574219 30.824219 21.664062 30.835938 21.761719 30.847656 C 21.84375 30.976562 21.929688 31.101562 22.015625 31.230469 C 21.804688 31.230469 21.59375 31.230469 21.375 31.230469 C 21.375 31.148438 21.375 31.0625 21.375 30.976562 C 21.121094 31.019531 20.867188 31.058594 20.609375 31.105469 C 20.609375 31.019531 20.609375 30.933594 20.609375 30.847656 Z M 20.609375 30.847656 "/>
<path style=" stroke:none;fill-rule:nonzero;fill:rgb(35.294119%,74.901962%,44.705883%);fill-opacity:1;" d="M 37.632812 29.566406 C 37.675781 29.652344 37.714844 29.738281 37.761719 29.824219 C 37.835938 29.859375 37.914062 29.898438 37.992188 29.9375 C 38.320312 30.105469 38.53125 30.324219 38.785156 30.59375 C 38.335938 30.507812 37.996094 30.351562 37.632812 30.078125 C 37.632812 29.910156 37.632812 29.742188 37.632812 29.566406 Z M 37.632812 29.566406 "/>
<path style=" stroke:none;fill-rule:nonzero;fill:rgb(49.803922%,81.176472%,55.29412%);fill-opacity:1;" d="M 47.742188 28.542969 C 47.828125 28.542969 47.914062 28.542969 48 28.542969 C 47.929688 28.847656 47.929688 28.847656 47.742188 29.183594 C 47.28125 29.351562 47.28125 29.351562 46.847656 29.441406 C 47.148438 29.140625 47.445312 28.84375 47.742188 28.542969 Z M 47.742188 28.542969 "/>
<path style=" stroke:none;fill-rule:nonzero;fill:rgb(36.078432%,77.254903%,43.921569%);fill-opacity:1;" d="M 51.710938 28.160156 C 51.839844 28.203125 51.964844 28.246094 52.097656 28.289062 C 52.097656 28.371094 52.097656 28.457031 52.097656 28.542969 C 51.84375 28.722656 51.589844 28.894531 51.328125 29.054688 C 51.285156 28.886719 51.242188 28.71875 51.199219 28.542969 C 51.328125 28.460938 51.453125 28.375 51.585938 28.289062 C 51.625 28.246094 51.667969 28.203125 51.710938 28.160156 Z M 51.710938 28.160156 "/>
<path style=" stroke:none;fill-rule:nonzero;fill:rgb(26.666668%,76.862746%,36.078432%);fill-opacity:1;" d="M 21.832031 24.566406 C 21.988281 24.570312 21.988281 24.570312 22.144531 24.574219 C 22.144531 24.914062 22.144531 25.25 22.144531 25.601562 C 22.101562 25.601562 22.058594 25.601562 22.015625 25.601562 C 22.015625 25.390625 22.015625 25.175781 22.015625 24.960938 C 21.890625 25.003906 21.761719 25.042969 21.632812 25.089844 C 21.632812 25.003906 21.632812 24.917969 21.632812 24.832031 C 21.546875 24.789062 21.464844 24.746094 21.375 24.703125 C 21.503906 24.574219 21.503906 24.574219 21.832031 24.566406 Z M 21.832031 24.566406 "/>
<path style=" stroke:none;fill-rule:nonzero;fill:rgb(51.372552%,80.392158%,58.431375%);fill-opacity:1;" d="M 52.351562 33.40625 C 52.601562 33.488281 52.601562 33.488281 52.863281 33.664062 C 52.960938 34.0625 52.960938 34.0625 52.992188 34.433594 C 52.867188 34.390625 52.738281 34.347656 52.609375 34.304688 C 52.457031 33.847656 52.457031 33.847656 52.351562 33.40625 Z M 52.351562 33.40625 "/>
<path style=" stroke:none;fill-rule:nonzero;fill:rgb(42.745098%,80.784315%,51.372552%);fill-opacity:1;" d="M 37.503906 33.023438 C 37.757812 33.023438 38.011719 33.023438 38.273438 33.023438 C 38.3125 33.191406 38.355469 33.363281 38.398438 33.535156 C 38.273438 33.597656 38.273438 33.597656 38.144531 33.664062 C 37.933594 33.453125 37.722656 33.242188 37.503906 33.023438 Z M 37.503906 33.023438 "/>
<path style=" stroke:none;fill-rule:nonzero;fill:rgb(46.27451%,80.392158%,52.941179%);fill-opacity:1;" d="M 21.632812 32.640625 C 21.757812 32.683594 21.886719 32.722656 22.015625 32.769531 C 22.015625 32.851562 22.015625 32.9375 22.015625 33.023438 C 21.929688 33.023438 21.847656 33.023438 21.761719 33.023438 C 21.761719 33.109375 21.761719 33.191406 21.761719 33.28125 C 21.546875 33.320312 21.335938 33.363281 21.121094 33.40625 C 21.121094 33.28125 21.121094 33.15625 21.121094 33.023438 C 21.289062 33.023438 21.457031 33.023438 21.632812 33.023438 C 21.632812 32.898438 21.632812 32.769531 21.632812 32.640625 Z M 21.632812 32.640625 "/>
<path style=" stroke:none;fill-rule:nonzero;fill:rgb(41.176471%,80.784315%,48.235294%);fill-opacity:1;" d="M 29.441406 26.113281 C 29.695312 26.113281 29.945312 26.113281 30.207031 26.113281 C 30.207031 26.238281 30.207031 26.367188 30.207031 26.496094 C 30.292969 26.582031 30.378906 26.664062 30.464844 26.753906 C 30.078125 26.753906 30.078125 26.753906 29.734375 26.433594 C 29.636719 26.328125 29.539062 26.222656 29.441406 26.113281 Z M 30.335938 26.113281 C 30.59375 26.238281 30.59375 26.238281 30.59375 26.238281 Z M 30.335938 26.113281 "/>
<path style=" stroke:none;fill-rule:nonzero;fill:rgb(34.117648%,75.294119%,42.352942%);fill-opacity:1;" d="M 29.183594 22.398438 C 29.613281 22.578125 29.820312 22.78125 30.078125 23.167969 C 29.953125 23.167969 29.828125 23.167969 29.695312 23.167969 C 29.695312 23.082031 29.695312 23 29.695312 22.910156 C 29.484375 22.910156 29.273438 22.910156 29.054688 22.910156 C 29.097656 22.742188 29.140625 22.574219 29.183594 22.398438 Z M 29.183594 22.398438 "/>
<path style=" stroke:none;fill-rule:nonzero;fill:rgb(41.568628%,78.823531%,50.980395%);fill-opacity:1;" d="M 44.800781 38.910156 C 45.011719 38.910156 45.222656 38.910156 45.441406 38.910156 C 45.480469 39.039062 45.523438 39.164062 45.566406 39.296875 C 45.761719 39.507812 45.761719 39.507812 45.953125 39.679688 C 45.386719 39.679688 45.210938 39.414062 44.800781 39.039062 C 44.800781 38.996094 44.800781 38.957031 44.800781 38.910156 Z M 44.800781 38.910156 "/>
<path style=" stroke:none;fill-rule:nonzero;fill:rgb(43.137255%,78.039217%,51.372552%);fill-opacity:1;" d="M 33.921875 29.953125 C 34.390625 29.992188 34.53125 30.050781 34.855469 30.40625 C 34.964844 30.5625 34.964844 30.5625 35.070312 30.71875 C 34.507812 30.71875 34.332031 30.453125 33.921875 30.078125 C 33.921875 30.039062 33.921875 29.996094 33.921875 29.953125 Z M 33.921875 29.953125 "/>
<path style=" stroke:none;fill-rule:nonzero;fill:rgb(42.352942%,78.823531%,50.196081%);fill-opacity:1;" d="M 56.832031 23.808594 C 56.957031 23.851562 57.085938 23.890625 57.214844 23.9375 C 56.773438 24.316406 56.773438 24.316406 56.320312 24.703125 C 56.441406 24.210938 56.476562 24.117188 56.832031 23.808594 Z M 56.832031 23.808594 "/>
<path style=" stroke:none;fill-rule:nonzero;fill:rgb(38.039216%,78.431374%,45.882353%);fill-opacity:1;" d="M 50.6875 29.054688 C 50.898438 29.054688 51.109375 29.054688 51.328125 29.054688 C 51.121094 29.273438 50.90625 29.488281 50.6875 29.695312 C 50.605469 29.695312 50.519531 29.695312 50.433594 29.695312 C 50.433594 29.570312 50.433594 29.441406 50.433594 29.3125 C 50.515625 29.3125 50.601562 29.3125 50.6875 29.3125 C 50.6875 29.226562 50.6875 29.144531 50.6875 29.054688 Z M 50.6875 29.054688 "/>
<path style=" stroke:none;fill-rule:nonzero;fill:rgb(50.588238%,79.607844%,56.862748%);fill-opacity:1;" d="M 14.078125 37.375 C 13.9375 37.566406 13.9375 37.566406 13.695312 37.761719 C 13.289062 37.785156 13.289062 37.785156 12.929688 37.761719 C 13.164062 37.285156 13.605469 37.363281 14.078125 37.375 Z M 14.078125 37.375 "/>
</g>
</svg>
